<svg xmlns="http://www.w3.org/2000/svg" width="1820" height="1300" viewBox="0 0 1820 1300">
  <defs><clipPath id="k1"><path d="M120.0,430.0 C102.6,431.2 83.8,411.5 74.3,395.0 C64.8,378.5 60.6,352.7 62.9,331.0 C65.3,309.4 79.8,278.6 88.7,265.0 C97.5,251.4 106.9,250.1 116.2,249.4 C125.4,248.7 133.8,248.8 144.2,260.9 C154.6,273.1 173.0,301.4 178.7,322.5 C184.4,343.6 188.3,369.7 178.5,387.6 C168.8,405.6 137.4,428.8 120.0,430.0 Z"/></clipPath><clipPath id="k2"><path d="M316.0,436.0 C304.6,434.6 294.8,412.2 290.1,394.9 C285.4,377.5 282.3,353.1 287.8,331.9 C293.4,310.6 311.1,282.4 323.6,267.6 C336.1,252.7 353.2,241.5 362.9,242.8 C372.6,244.1 377.1,258.9 381.8,275.6 C386.6,292.3 395.2,321.7 391.3,343.0 C387.4,364.4 370.9,388.1 358.3,403.6 C345.7,419.1 327.4,437.4 316.0,436.0 Z"/></clipPath><clipPath id="k3"><path d="M494.9,364.8 C486.8,365.0 464.3,379.2 455.3,380.2 C446.2,381.1 442.2,374.8 440.7,370.4 C439.2,366.0 443.1,357.8 446.2,353.8 C449.2,349.8 461.1,350.4 459.0,346.4 C456.9,342.4 438.0,336.2 433.3,329.6 C428.7,323.1 428.1,312.1 431.3,307.0 C434.4,301.9 445.2,298.1 452.5,299.0 C459.7,299.9 472.7,317.8 474.8,312.6 C476.9,307.4 463.3,278.7 465.1,267.8 C466.9,256.8 477.9,248.2 485.5,247.1 C493.2,246.1 506.3,251.0 510.9,261.3 C515.5,271.6 509.5,304.5 513.3,309.0 C517.2,313.5 526.8,291.5 534.1,288.5 C541.3,285.5 552.4,287.0 556.8,291.2 C561.2,295.4 563.6,306.3 560.3,313.8 C556.9,321.2 538.0,331.9 536.6,336.0 C535.2,340.0 547.7,335.3 551.9,338.0 C556.2,340.7 562.1,347.6 561.9,352.2 C561.8,356.8 559.8,363.8 551.0,365.6 C542.1,367.4 516.8,360.6 509.0,362.8 C501.2,365.1 506.4,378.8 504.1,379.1 C501.7,379.4 503.0,364.7 494.9,364.8 Z"/></clipPath><clipPath id="k4"><path d="M676.0,434.0 C665.5,428.4 645.9,404.4 637.8,387.1 C629.8,369.9 624.2,349.4 627.7,330.7 C631.3,312.1 643.0,290.3 659.1,275.2 C675.1,260.1 707.6,242.0 724.0,240.2 C740.3,238.4 750.5,252.3 757.3,264.5 C764.2,276.7 768.8,295.5 765.1,313.5 C761.3,331.5 745.7,354.8 734.9,372.7 C724.2,390.6 710.5,410.6 700.7,420.8 C690.8,431.1 686.5,439.6 676.0,434.0 Z"/></clipPath><clipPath id="k5"><path d="M836.0,436.0 C848.0,350.4 880.0,313.2 884.0,250.0 A18.0,18.0 0 0 1 920.0,250.0 C924.0,313.2 908.0,350.4 896.0,436.0 Z"/></clipPath><clipPath id="k6"><path d="M125.0,616.0 C114.0,634.7 120.0,691.9 117.0,728.2 C113.9,764.5 114.6,807.8 106.9,833.8 C99.3,859.8 79.8,870.0 71.2,884.0 C62.6,898.0 53.1,908.3 55.2,918.0 C57.3,927.7 74.4,940.2 84.0,942.0 C93.6,943.8 103.2,928.7 112.8,929.0 C122.4,929.3 131.7,944.5 141.6,944.0 C151.5,943.5 162.4,926.2 172.0,926.0 C181.6,925.8 190.9,943.7 199.2,943.0 C207.5,942.3 219.5,931.2 221.6,922.0 C223.7,912.8 220.0,903.8 212.0,888.0 C204.0,872.2 179.5,854.9 173.6,827.2 C167.7,799.5 175.0,756.8 176.6,721.6 C178.1,686.4 191.6,633.6 183.0,616.0 C174.4,598.4 136.0,597.3 125.0,616.0 Z"/></clipPath><clipPath id="k7"><path d="M325.0,616.0 C298.8,630.3 321.8,671.5 317.5,701.8 C313.2,732.0 306.2,769.5 299.5,797.5 C292.8,825.5 286.4,849.9 277.4,870.0 C268.3,890.1 241.8,906.0 245.2,918.0 C248.6,930.0 280.3,940.2 297.8,942.0 C315.3,943.8 332.8,928.7 350.4,929.0 C367.9,929.3 384.9,944.5 402.9,944.0 C420.9,943.5 440.9,926.2 458.4,926.0 C475.9,925.8 493.0,943.7 508.0,943.0 C523.1,942.3 545.5,933.2 548.9,922.0 C552.3,910.8 537.3,895.1 528.5,876.0 C519.7,856.9 502.9,835.3 496.0,807.4 C489.1,779.5 490.5,740.3 487.0,708.4 C483.5,676.5 502.0,631.4 475.0,616.0 C448.0,600.6 351.2,601.7 325.0,616.0 Z"/></clipPath><clipPath id="k8"><path d="M640.3,628.0 C643.4,618.9 647.4,612.2 657.5,609.8 C667.6,607.4 686.2,613.0 700.8,613.5 C715.5,614.0 735.4,609.6 745.5,612.7 C755.7,615.9 759.6,623.1 761.8,632.4 C763.9,641.7 762.2,659.8 758.4,668.7 C754.6,677.6 748.6,683.5 738.8,686.0 C728.9,688.6 712.8,684.3 699.1,683.9 C685.5,683.6 667.0,686.9 657.0,683.7 C646.9,680.4 641.6,673.6 638.8,664.3 C636.1,655.0 637.2,637.0 640.3,628.0 Z"/></clipPath><clipPath id="k9"><path d="M634.3,684.6 C637.4,675.4 641.7,668.5 653.3,665.5 C664.9,662.5 686.9,667.1 704.0,666.7 C721.2,666.3 744.1,660.8 756.1,663.4 C768.1,666.0 773.2,672.9 776.2,682.1 C779.2,691.3 778.3,709.4 774.3,718.5 C770.4,727.7 763.8,733.9 752.4,737.0 C741.0,740.1 721.9,736.8 706.0,737.2 C690.1,737.5 668.7,742.0 656.8,739.3 C644.9,736.6 638.3,730.1 634.5,721.0 C630.8,711.9 631.1,693.8 634.3,684.6 Z"/></clipPath><clipPath id="k10"><path d="M612.3,733.8 C616.5,724.7 622.1,718.1 636.2,715.8 C650.3,713.5 676.3,719.3 696.8,719.9 C717.4,720.5 745.1,716.3 759.4,719.6 C773.6,722.8 779.2,730.1 782.3,739.4 C785.4,748.8 783.3,766.8 778.0,775.7 C772.7,784.6 764.4,790.4 750.6,792.8 C736.8,795.3 714.2,790.9 695.1,790.4 C676.0,789.8 650.2,793.0 636.1,789.7 C622.0,786.3 614.5,779.4 610.5,770.1 C606.5,760.8 608.0,742.8 612.3,733.8 Z"/></clipPath><clipPath id="k11"><path d="M605.4,791.9 C610.0,782.6 616.2,775.7 632.8,772.5 C649.4,769.4 680.6,773.7 705.0,773.1 C729.5,772.6 762.2,766.8 779.3,769.2 C796.4,771.6 803.4,778.5 807.6,787.7 C811.9,796.9 810.3,815.0 804.5,824.1 C798.8,833.3 789.3,839.6 773.1,842.8 C756.8,846.1 729.7,843.0 707.0,843.6 C684.3,844.1 653.8,848.8 636.9,846.3 C620.0,843.7 610.7,837.3 605.4,828.2 C600.2,819.2 600.9,801.1 605.4,791.9 Z"/></clipPath><clipPath id="k12"><path d="M580.1,839.4 C586.0,830.4 593.6,823.8 613.2,821.7 C632.8,819.5 669.2,825.5 697.8,826.3 C726.5,827.2 765.1,823.2 785.0,826.6 C804.9,830.0 812.8,837.3 817.2,846.7 C821.6,856.1 818.7,874.1 811.5,882.9 C804.2,891.8 792.7,897.5 773.5,899.8 C754.3,902.1 722.7,897.5 696.1,896.8 C669.5,896.1 633.5,899.0 613.8,895.5 C594.2,892.0 583.6,885.1 578.0,875.7 C572.4,866.4 574.2,848.4 580.1,839.4 Z"/></clipPath><clipPath id="k13"><path d="M567.7,899.3 C574.0,889.9 582.5,883.0 605.0,879.7 C627.6,876.4 669.9,880.3 703.0,879.5 C736.2,878.7 780.6,872.6 803.7,874.9 C826.9,877.1 836.4,884.0 842.1,893.1 C847.7,902.2 845.4,920.3 837.5,929.6 C829.6,938.8 816.7,945.2 794.6,948.6 C772.5,952.0 735.8,949.2 705.0,950.0 C674.2,950.8 632.8,955.8 609.9,953.4 C586.9,951.0 574.4,944.7 567.4,935.7 C560.3,926.6 561.5,908.6 567.7,899.3 Z"/></clipPath><clipPath id="k14"><path d="M1005.6,250.2 Q1020.8,247.8 1033.0,257.1 Q1045.1,264.5 1051.2,277.3 Q1056.5,291.2 1048.0,303.3 Q1041.8,316.5 1028.6,322.5 Q1014.7,329.3 1000.0,324.1 Q985.8,321.0 975.3,310.8 Q965.2,299.9 968.5,285.4 Q969.6,271.3 979.8,261.6 Q990.3,250.4 1005.6,250.2 Z"/></clipPath><clipPath id="k15"><path d="M1277.6,250.2 Q1292.8,247.8 1305.0,257.1 Q1317.1,264.5 1323.2,277.3 Q1328.5,291.2 1320.0,303.3 Q1313.8,316.5 1300.6,322.5 Q1286.7,329.3 1272.0,324.1 Q1257.8,321.0 1247.3,310.8 Q1237.2,299.9 1240.5,285.4 Q1241.6,271.3 1251.8,261.6 Q1262.3,250.4 1277.6,250.2 Z"/></clipPath><clipPath id="k16"><path d="M1549.6,250.2 Q1564.8,247.8 1577.0,257.1 Q1589.1,264.5 1595.2,277.3 Q1600.5,291.2 1592.0,303.3 Q1585.8,316.5 1572.6,322.5 Q1558.7,329.3 1544.0,324.1 Q1529.8,321.0 1519.3,310.8 Q1509.2,299.9 1512.5,285.4 Q1513.6,271.3 1523.8,261.6 Q1534.3,250.4 1549.6,250.2 Z"/></clipPath><clipPath id="k17"><path d="M1005.6,366.2 Q1020.8,363.8 1033.0,373.1 Q1045.1,380.5 1051.2,393.3 Q1056.5,407.2 1048.0,419.3 Q1041.8,432.5 1028.6,438.5 Q1014.7,445.3 1000.0,440.1 Q985.8,437.0 975.3,426.8 Q965.2,415.9 968.5,401.4 Q969.6,387.3 979.8,377.6 Q990.3,366.4 1005.6,366.2 Z"/></clipPath><clipPath id="k18"><path d="M1277.6,366.2 Q1292.8,363.8 1305.0,373.1 Q1317.1,380.5 1323.2,393.3 Q1328.5,407.2 1320.0,419.3 Q1313.8,432.5 1300.6,438.5 Q1286.7,445.3 1272.0,440.1 Q1257.8,437.0 1247.3,426.8 Q1237.2,415.9 1240.5,401.4 Q1241.6,387.3 1251.8,377.6 Q1262.3,366.4 1277.6,366.2 Z"/></clipPath><clipPath id="k19"><path d="M1549.6,366.2 Q1564.8,363.8 1577.0,373.1 Q1589.1,380.5 1595.2,393.3 Q1600.5,407.2 1592.0,419.3 Q1585.8,432.5 1572.6,438.5 Q1558.7,445.3 1544.0,440.1 Q1529.8,437.0 1519.3,426.8 Q1509.2,415.9 1512.5,401.4 Q1513.6,387.3 1523.8,377.6 Q1534.3,366.4 1549.6,366.2 Z"/></clipPath><clipPath id="k20"><path d="M1005.6,482.2 Q1020.8,479.8 1033.0,489.1 Q1045.1,496.5 1051.2,509.3 Q1056.5,523.2 1048.0,535.3 Q1041.8,548.5 1028.6,554.5 Q1014.7,561.3 1000.0,556.1 Q985.8,553.0 975.3,542.8 Q965.2,531.9 968.5,517.4 Q969.6,503.3 979.8,493.6 Q990.3,482.4 1005.6,482.2 Z"/></clipPath><clipPath id="k21"><path d="M1277.6,482.2 Q1292.8,479.8 1305.0,489.1 Q1317.1,496.5 1323.2,509.3 Q1328.5,523.2 1320.0,535.3 Q1313.8,548.5 1300.6,554.5 Q1286.7,561.3 1272.0,556.1 Q1257.8,553.0 1247.3,542.8 Q1237.2,531.9 1240.5,517.4 Q1241.6,503.3 1251.8,493.6 Q1262.3,482.4 1277.6,482.2 Z"/></clipPath><clipPath id="k22"><path d="M1549.6,482.2 Q1564.8,479.8 1577.0,489.1 Q1589.1,496.5 1595.2,509.3 Q1600.5,523.2 1592.0,535.3 Q1585.8,548.5 1572.6,554.5 Q1558.7,561.3 1544.0,556.1 Q1529.8,553.0 1519.3,542.8 Q1509.2,531.9 1512.5,517.4 Q1513.6,503.3 1523.8,493.6 Q1534.3,482.4 1549.6,482.2 Z"/></clipPath><clipPath id="k23"><path d="M1005.6,598.2 Q1020.8,595.8 1033.0,605.1 Q1045.1,612.5 1051.2,625.3 Q1056.5,639.2 1048.0,651.3 Q1041.8,664.5 1028.6,670.5 Q1014.7,677.3 1000.0,672.1 Q985.8,669.0 975.3,658.8 Q965.2,647.9 968.5,633.4 Q969.6,619.3 979.8,609.6 Q990.3,598.4 1005.6,598.2 Z"/></clipPath><clipPath id="k24"><path d="M1277.6,598.2 Q1292.8,595.8 1305.0,605.1 Q1317.1,612.5 1323.2,625.3 Q1328.5,639.2 1320.0,651.3 Q1313.8,664.5 1300.6,670.5 Q1286.7,677.3 1272.0,672.1 Q1257.8,669.0 1247.3,658.8 Q1237.2,647.9 1240.5,633.4 Q1241.6,619.3 1251.8,609.6 Q1262.3,598.4 1277.6,598.2 Z"/></clipPath><clipPath id="k25"><path d="M1549.6,598.2 Q1564.8,595.8 1577.0,605.1 Q1589.1,612.5 1595.2,625.3 Q1600.5,639.2 1592.0,651.3 Q1585.8,664.5 1572.6,670.5 Q1558.7,677.3 1544.0,672.1 Q1529.8,669.0 1519.3,658.8 Q1509.2,647.9 1512.5,633.4 Q1513.6,619.3 1523.8,609.6 Q1534.3,598.4 1549.6,598.2 Z"/></clipPath><clipPath id="k26"><path d="M1064.4,838.5 Q1093.6,836.5 1119.5,850.3 Q1142.7,865.9 1158.9,888.7 Q1170.4,914.4 1164.0,941.9 Q1154.5,967.8 1134.9,987.3 Q1112.6,1006.1 1083.7,1010.4 Q1054.8,1009.3 1028.0,998.5 Q1002.8,984.7 990.8,958.6 Q981.0,933.2 983.1,905.9 Q991.0,878.7 1012.4,860.1 Q1036.5,844.7 1064.4,838.5 Z"/></clipPath><clipPath id="k27"><path d="M1318.4,838.5 Q1347.6,836.5 1373.5,850.3 Q1396.7,865.9 1412.9,888.7 Q1424.4,914.4 1418.0,941.9 Q1408.5,967.8 1388.9,987.3 Q1366.6,1006.1 1337.7,1010.4 Q1308.8,1009.3 1282.0,998.5 Q1256.8,984.7 1244.8,958.6 Q1235.0,933.2 1237.1,905.9 Q1245.0,878.7 1266.4,860.1 Q1290.5,844.7 1318.4,838.5 Z"/></clipPath><clipPath id="k28"><path d="M1572.4,838.5 Q1601.6,836.5 1627.5,850.3 Q1650.7,865.9 1666.9,888.7 Q1678.4,914.4 1672.0,941.9 Q1662.5,967.8 1642.9,987.3 Q1620.6,1006.1 1591.7,1010.4 Q1562.8,1009.3 1536.0,998.5 Q1510.8,984.7 1498.8,958.6 Q1489.0,933.2 1491.1,905.9 Q1499.0,878.7 1520.4,860.1 Q1544.5,844.7 1572.4,838.5 Z"/></clipPath><clipPath id="k29"><path d="M1064.4,1038.5 Q1093.6,1036.5 1119.5,1050.3 Q1142.7,1065.9 1158.9,1088.7 Q1170.4,1114.4 1164.0,1141.9 Q1154.5,1167.8 1134.9,1187.3 Q1112.6,1206.1 1083.7,1210.4 Q1054.8,1209.3 1028.0,1198.5 Q1002.8,1184.7 990.8,1158.6 Q981.0,1133.2 983.1,1105.9 Q991.0,1078.7 1012.4,1060.1 Q1036.5,1044.7 1064.4,1038.5 Z"/></clipPath><clipPath id="k30"><path d="M1318.4,1038.5 Q1347.6,1036.5 1373.5,1050.3 Q1396.7,1065.9 1412.9,1088.7 Q1424.4,1114.4 1418.0,1141.9 Q1408.5,1167.8 1388.9,1187.3 Q1366.6,1206.1 1337.7,1210.4 Q1308.8,1209.3 1282.0,1198.5 Q1256.8,1184.7 1244.8,1158.6 Q1235.0,1133.2 1237.1,1105.9 Q1245.0,1078.7 1266.4,1060.1 Q1290.5,1044.7 1318.4,1038.5 Z"/></clipPath><clipPath id="k31"><path d="M1572.4,1038.5 Q1601.6,1036.5 1627.5,1050.3 Q1650.7,1065.9 1666.9,1088.7 Q1678.4,1114.4 1672.0,1141.9 Q1662.5,1167.8 1642.9,1187.3 Q1620.6,1206.1 1591.7,1210.4 Q1562.8,1209.3 1536.0,1198.5 Q1510.8,1184.7 1498.8,1158.6 Q1489.0,1133.2 1491.1,1105.9 Q1499.0,1078.7 1520.4,1060.1 Q1544.5,1044.7 1572.4,1038.5 Z"/></clipPath></defs>
  <rect x="0" y="0" width="1820" height="1300" fill="#fff7e6"/>
  <text x="44" y="66" font-family="Verdana,DejaVu Sans,sans-serif" font-size="42" font-weight="bold" fill="#3f3026">ALPHABET GARDEN &#8212; PLANT KIT</text>
  <text x="44" y="102" font-family="Verdana,DejaVu Sans,sans-serif" font-size="21" font-weight="normal" fill="#3f3026">1024x1024 &#183; stem base y=1000 &#183; object height ~880 (86% of frame) &#183; light from UPPER-LEFT on every plant</text>
  <text x="44" y="130" font-family="Verdana,DejaVu Sans,sans-serif" font-size="21" font-weight="normal" fill="#3f3026">outlines 13px main / 10px prop / 7px fine &#183; round joins + caps everywhere &#183; two-tone hard-edged, never a gradient</text>
  <text x="44" y="198" font-family="Verdana,DejaVu Sans,sans-serif" font-size="26" font-weight="bold" fill="#3f3026">LEAF VOCABULARY</text>
  <path d="M120.0,430.0 C102.6,431.2 83.8,411.5 74.3,395.0 C64.8,378.5 60.6,352.7 62.9,331.0 C65.3,309.4 79.8,278.6 88.7,265.0 C97.5,251.4 106.9,250.1 116.2,249.4 C125.4,248.7 133.8,248.8 144.2,260.9 C154.6,273.1 173.0,301.4 178.7,322.5 C184.4,343.6 188.3,369.7 178.5,387.6 C168.8,405.6 137.4,428.8 120.0,430.0 Z" fill="#7ec850"/>
  <g clip-path="url(#k1)"><path d="M-43.2,376.8 C-35.4,376.0 -12.1,374.2 3.4,371.9 C19.0,369.6 34.5,366.8 50.1,363.0 C65.6,359.3 81.1,354.2 96.7,349.2 C112.2,344.3 127.8,338.2 143.3,333.2 C158.9,328.3 174.4,323.2 189.9,319.5 C205.5,315.7 221.0,313.0 236.6,310.7 C252.1,308.4 275.4,306.7 283.2,305.9 L283.2,636.0 L-43.2,636.0 Z" fill="#5da23c"/></g>
  <path d="M120.0,430.0 C102.6,431.2 83.8,411.5 74.3,395.0 C64.8,378.5 60.6,352.7 62.9,331.0 C65.3,309.4 79.8,278.6 88.7,265.0 C97.5,251.4 106.9,250.1 116.2,249.4 C125.4,248.7 133.8,248.8 144.2,260.9 C154.6,273.1 173.0,301.4 178.7,322.5 C184.4,343.6 188.3,369.7 178.5,387.6 C168.8,405.6 137.4,428.8 120.0,430.0 Z" fill="none" stroke="#000000" stroke-width="10" stroke-linejoin="round" stroke-linecap="round"/>
  <path d="M316.0,436.0 C304.6,434.6 294.8,412.2 290.1,394.9 C285.4,377.5 282.3,353.1 287.8,331.9 C293.4,310.6 311.1,282.4 323.6,267.6 C336.1,252.7 353.2,241.5 362.9,242.8 C372.6,244.1 377.1,258.9 381.8,275.6 C386.6,292.3 395.2,321.7 391.3,343.0 C387.4,364.4 370.9,388.1 358.3,403.6 C345.7,419.1 327.4,437.4 316.0,436.0 Z" fill="#7ec850"/>
  <g clip-path="url(#k2)"><path d="M152.8,378.8 C160.6,378.0 183.9,376.2 199.4,373.9 C215.0,371.6 230.5,368.8 246.1,365.0 C261.6,361.3 277.1,356.2 292.7,351.2 C308.2,346.3 323.8,340.2 339.3,335.2 C354.9,330.3 370.4,325.2 385.9,321.5 C401.5,317.7 417.0,315.0 432.6,312.7 C448.1,310.4 471.4,308.7 479.2,307.9 L479.2,638.0 L152.8,638.0 Z" fill="#5da23c"/></g>
  <path d="M316.0,436.0 C304.6,434.6 294.8,412.2 290.1,394.9 C285.4,377.5 282.3,353.1 287.8,331.9 C293.4,310.6 311.1,282.4 323.6,267.6 C336.1,252.7 353.2,241.5 362.9,242.8 C372.6,244.1 377.1,258.9 381.8,275.6 C386.6,292.3 395.2,321.7 391.3,343.0 C387.4,364.4 370.9,388.1 358.3,403.6 C345.7,419.1 327.4,437.4 316.0,436.0 Z" fill="none" stroke="#000000" stroke-width="10" stroke-linejoin="round" stroke-linecap="round"/>
  <path d="M494.9,364.8 C486.8,365.0 464.3,379.2 455.3,380.2 C446.2,381.1 442.2,374.8 440.7,370.4 C439.2,366.0 443.1,357.8 446.2,353.8 C449.2,349.8 461.1,350.4 459.0,346.4 C456.9,342.4 438.0,336.2 433.3,329.6 C428.7,323.1 428.1,312.1 431.3,307.0 C434.4,301.9 445.2,298.1 452.5,299.0 C459.7,299.9 472.7,317.8 474.8,312.6 C476.9,307.4 463.3,278.7 465.1,267.8 C466.9,256.8 477.9,248.2 485.5,247.1 C493.2,246.1 506.3,251.0 510.9,261.3 C515.5,271.6 509.5,304.5 513.3,309.0 C517.2,313.5 526.8,291.5 534.1,288.5 C541.3,285.5 552.4,287.0 556.8,291.2 C561.2,295.4 563.6,306.3 560.3,313.8 C556.9,321.2 538.0,331.9 536.6,336.0 C535.2,340.0 547.7,335.3 551.9,338.0 C556.2,340.7 562.1,347.6 561.9,352.2 C561.8,356.8 559.8,363.8 551.0,365.6 C542.1,367.4 516.8,360.6 509.0,362.8 C501.2,365.1 506.4,378.8 504.1,379.1 C501.7,379.4 503.0,364.7 494.9,364.8 Z" fill="#ef6a3c"/>
  <g clip-path="url(#k3)"><path d="M336.8,378.8 C344.6,378.0 367.9,376.2 383.4,373.9 C399.0,371.6 414.5,368.8 430.1,365.0 C445.6,361.3 461.1,356.2 476.7,351.2 C492.2,346.3 507.8,340.2 523.3,335.2 C538.9,330.3 554.4,325.2 569.9,321.5 C585.5,317.7 601.0,315.0 616.6,312.7 C632.1,310.4 655.4,308.7 663.2,307.9 L663.2,638.0 L336.8,638.0 Z" fill="#cf5530"/></g>
  <path d="M494.9,364.8 C486.8,365.0 464.3,379.2 455.3,380.2 C446.2,381.1 442.2,374.8 440.7,370.4 C439.2,366.0 443.1,357.8 446.2,353.8 C449.2,349.8 461.1,350.4 459.0,346.4 C456.9,342.4 438.0,336.2 433.3,329.6 C428.7,323.1 428.1,312.1 431.3,307.0 C434.4,301.9 445.2,298.1 452.5,299.0 C459.7,299.9 472.7,317.8 474.8,312.6 C476.9,307.4 463.3,278.7 465.1,267.8 C466.9,256.8 477.9,248.2 485.5,247.1 C493.2,246.1 506.3,251.0 510.9,261.3 C515.5,271.6 509.5,304.5 513.3,309.0 C517.2,313.5 526.8,291.5 534.1,288.5 C541.3,285.5 552.4,287.0 556.8,291.2 C561.2,295.4 563.6,306.3 560.3,313.8 C556.9,321.2 538.0,331.9 536.6,336.0 C535.2,340.0 547.7,335.3 551.9,338.0 C556.2,340.7 562.1,347.6 561.9,352.2 C561.8,356.8 559.8,363.8 551.0,365.6 C542.1,367.4 516.8,360.6 509.0,362.8 C501.2,365.1 506.4,378.8 504.1,379.1 C501.7,379.4 503.0,364.7 494.9,364.8 Z" fill="none" stroke="#000000" stroke-width="10" stroke-linejoin="round" stroke-linecap="round"/>
  <path d="M676.0,434.0 C665.5,428.4 645.9,404.4 637.8,387.1 C629.8,369.9 624.2,349.4 627.7,330.7 C631.3,312.1 643.0,290.3 659.1,275.2 C675.1,260.1 707.6,242.0 724.0,240.2 C740.3,238.4 750.5,252.3 757.3,264.5 C764.2,276.7 768.8,295.5 765.1,313.5 C761.3,331.5 745.7,354.8 734.9,372.7 C724.2,390.6 710.5,410.6 700.7,420.8 C690.8,431.1 686.5,439.6 676.0,434.0 Z" fill="#7ec850"/>
  <g clip-path="url(#k4)"><path d="M526.8,378.8 C534.6,378.0 557.9,376.2 573.4,373.9 C589.0,371.6 604.5,368.8 620.1,365.0 C635.6,361.3 651.1,356.2 666.7,351.2 C682.2,346.3 697.8,340.2 713.3,335.2 C728.9,330.3 744.4,325.2 759.9,321.5 C775.5,317.7 791.0,315.0 806.6,312.7 C822.1,310.4 845.4,308.7 853.2,307.9 L853.2,638.0 L526.8,638.0 Z" fill="#5da23c"/></g>
  <path d="M676.0,434.0 C665.5,428.4 645.9,404.4 637.8,387.1 C629.8,369.9 624.2,349.4 627.7,330.7 C631.3,312.1 643.0,290.3 659.1,275.2 C675.1,260.1 707.6,242.0 724.0,240.2 C740.3,238.4 750.5,252.3 757.3,264.5 C764.2,276.7 768.8,295.5 765.1,313.5 C761.3,331.5 745.7,354.8 734.9,372.7 C724.2,390.6 710.5,410.6 700.7,420.8 C690.8,431.1 686.5,439.6 676.0,434.0 Z" fill="none" stroke="#000000" stroke-width="10" stroke-linejoin="round" stroke-linecap="round"/>
  <path d="M836.0,436.0 C848.0,350.4 880.0,313.2 884.0,250.0 A18.0,18.0 0 0 1 920.0,250.0 C924.0,313.2 908.0,350.4 896.0,436.0 Z" fill="#7ec850"/>
  <g clip-path="url(#k5)"><path d="M720.8,378.8 C728.6,378.0 751.9,376.2 767.4,373.9 C783.0,371.6 798.5,368.8 814.1,365.0 C829.6,361.3 845.1,356.2 860.7,351.2 C876.2,346.3 891.8,340.2 907.3,335.2 C922.9,330.3 938.4,325.2 953.9,321.5 C969.5,317.7 985.0,315.0 1000.6,312.7 C1016.1,310.4 1039.4,308.7 1047.2,307.9 L1047.2,638.0 L720.8,638.0 Z" fill="#5da23c"/></g>
  <path d="M836.0,436.0 C848.0,350.4 880.0,313.2 884.0,250.0 A18.0,18.0 0 0 1 920.0,250.0 C924.0,313.2 908.0,350.4 896.0,436.0 Z" fill="none" stroke="#000000" stroke-width="10" stroke-linejoin="round" stroke-linecap="round"/>
  <text x="72" y="486" font-family="Verdana,DejaVu Sans,sans-serif" font-size="20" font-weight="bold" fill="#3f3026">round</text>
  <text x="264" y="486" font-family="Verdana,DejaVu Sans,sans-serif" font-size="20" font-weight="bold" fill="#3f3026">pointed</text>
  <text x="428" y="486" font-family="Verdana,DejaVu Sans,sans-serif" font-size="20" font-weight="bold" fill="#3f3026">lobed / maple</text>
  <text x="634" y="486" font-family="Verdana,DejaVu Sans,sans-serif" font-size="20" font-weight="bold" fill="#3f3026">frond</text>
  <text x="838" y="486" font-family="Verdana,DejaVu Sans,sans-serif" font-size="20" font-weight="bold" fill="#3f3026">blade</text>
  <text x="44" y="566" font-family="Verdana,DejaVu Sans,sans-serif" font-size="26" font-weight="bold" fill="#3f3026">TRUNK / STEM  +  THE GROUND ANCHOR</text>
  <path d="M125.0,616.0 C114.0,634.7 120.0,691.9 117.0,728.2 C113.9,764.5 114.6,807.8 106.9,833.8 C99.3,859.8 79.8,870.0 71.2,884.0 C62.6,898.0 53.1,908.3 55.2,918.0 C57.3,927.7 74.4,940.2 84.0,942.0 C93.6,943.8 103.2,928.7 112.8,929.0 C122.4,929.3 131.7,944.5 141.6,944.0 C151.5,943.5 162.4,926.2 172.0,926.0 C181.6,925.8 190.9,943.7 199.2,943.0 C207.5,942.3 219.5,931.2 221.6,922.0 C223.7,912.8 220.0,903.8 212.0,888.0 C204.0,872.2 179.5,854.9 173.6,827.2 C167.7,799.5 175.0,756.8 176.6,721.6 C178.1,686.4 191.6,633.6 183.0,616.0 C174.4,598.4 136.0,597.3 125.0,616.0 Z" fill="#7ec850"/>
  <g clip-path="url(#k6)"><path d="M7.2,810.8 C14.0,811.8 34.4,815.9 48.0,816.6 C61.6,817.2 75.2,817.0 88.8,814.8 C102.4,812.7 116.0,808.2 129.6,803.8 C143.2,799.5 156.8,793.1 170.4,788.8 C184.0,784.4 197.6,780.0 211.2,777.9 C224.8,775.8 238.4,775.7 252.0,776.4 C265.6,777.1 286.0,781.2 292.8,782.2 L292.8,1340.0 L7.2,1340.0 Z" fill="#5da23c"/></g>
  <path d="M125.0,616.0 C114.0,634.7 120.0,691.9 117.0,728.2 C113.9,764.5 114.6,807.8 106.9,833.8 C99.3,859.8 79.8,870.0 71.2,884.0 C62.6,898.0 53.1,908.3 55.2,918.0 C57.3,927.7 74.4,940.2 84.0,942.0 C93.6,943.8 103.2,928.7 112.8,929.0 C122.4,929.3 131.7,944.5 141.6,944.0 C151.5,943.5 162.4,926.2 172.0,926.0 C181.6,925.8 190.9,943.7 199.2,943.0 C207.5,942.3 219.5,931.2 221.6,922.0 C223.7,912.8 220.0,903.8 212.0,888.0 C204.0,872.2 179.5,854.9 173.6,827.2 C167.7,799.5 175.0,756.8 176.6,721.6 C178.1,686.4 191.6,633.6 183.0,616.0 C174.4,598.4 136.0,597.3 125.0,616.0 Z" fill="none" stroke="#000000" stroke-width="13" stroke-linejoin="round" stroke-linecap="round"/>
  <text x="60" y="992" font-family="Verdana,DejaVu Sans,sans-serif" font-size="20" font-weight="bold" fill="#3f3026">slim stem</text>
  <path d="M325.0,616.0 C298.8,630.3 321.8,671.5 317.5,701.8 C313.2,732.0 306.2,769.5 299.5,797.5 C292.8,825.5 286.4,849.9 277.4,870.0 C268.3,890.1 241.8,906.0 245.2,918.0 C248.6,930.0 280.3,940.2 297.8,942.0 C315.3,943.8 332.8,928.7 350.4,929.0 C367.9,929.3 384.9,944.5 402.9,944.0 C420.9,943.5 440.9,926.2 458.4,926.0 C475.9,925.8 493.0,943.7 508.0,943.0 C523.1,942.3 545.5,933.2 548.9,922.0 C552.3,910.8 537.3,895.1 528.5,876.0 C519.7,856.9 502.9,835.3 496.0,807.4 C489.1,779.5 490.5,740.3 487.0,708.4 C483.5,676.5 502.0,631.4 475.0,616.0 C448.0,600.6 351.2,601.7 325.0,616.0 Z" fill="#a9713f"/>
  <g clip-path="url(#k7)"><path d="M174.0,838.4 C185.3,838.7 219.3,840.7 242.0,840.0 C264.7,839.3 287.3,837.7 310.0,834.2 C332.7,830.7 355.3,824.8 378.0,819.1 C400.7,813.4 423.3,805.6 446.0,799.9 C468.7,794.2 491.3,788.4 514.0,784.9 C536.7,781.5 559.3,779.9 582.0,779.3 C604.7,778.6 638.7,780.7 650.0,781.0 L650.0,1346.0 L174.0,1346.0 Z" fill="#8a5a33"/></g>
  <path d="M325.0,616.0 C298.8,630.3 321.8,671.5 317.5,701.8 C313.2,732.0 306.2,769.5 299.5,797.5 C292.8,825.5 286.4,849.9 277.4,870.0 C268.3,890.1 241.8,906.0 245.2,918.0 C248.6,930.0 280.3,940.2 297.8,942.0 C315.3,943.8 332.8,928.7 350.4,929.0 C367.9,929.3 384.9,944.5 402.9,944.0 C420.9,943.5 440.9,926.2 458.4,926.0 C475.9,925.8 493.0,943.7 508.0,943.0 C523.1,942.3 545.5,933.2 548.9,922.0 C552.3,910.8 537.3,895.1 528.5,876.0 C519.7,856.9 502.9,835.3 496.0,807.4 C489.1,779.5 490.5,740.3 487.0,708.4 C483.5,676.5 502.0,631.4 475.0,616.0 C448.0,600.6 351.2,601.7 325.0,616.0 Z" fill="none" stroke="#000000" stroke-width="13" stroke-linejoin="round" stroke-linecap="round"/>
  <text x="320" y="992" font-family="Verdana,DejaVu Sans,sans-serif" font-size="20" font-weight="bold" fill="#3f3026">chunky trunk</text>
  <path d="M640.3,628.0 C643.4,618.9 647.4,612.2 657.5,609.8 C667.6,607.4 686.2,613.0 700.8,613.5 C715.5,614.0 735.4,609.6 745.5,612.7 C755.7,615.9 759.6,623.1 761.8,632.4 C763.9,641.7 762.2,659.8 758.4,668.7 C754.6,677.6 748.6,683.5 738.8,686.0 C728.9,688.6 712.8,684.3 699.1,683.9 C685.5,683.6 667.0,686.9 657.0,683.7 C646.9,680.4 641.6,673.6 638.8,664.3 C636.1,655.0 637.2,637.0 640.3,628.0 Z" fill="#c2884e"/>
  <g clip-path="url(#k8)"><path d="M594.6,654.4 C599.6,654.3 614.7,653.9 624.7,653.4 C634.8,652.9 644.8,652.3 654.8,651.4 C664.9,650.6 674.9,649.3 684.9,648.2 C695.0,647.0 705.0,645.5 715.1,644.3 C725.1,643.1 735.1,641.9 745.2,641.0 C755.2,640.2 765.2,639.5 775.3,639.1 C785.3,638.6 800.4,638.2 805.4,638.1 L805.4,722.4 L594.6,722.4 Z" fill="#a9713f"/></g>
  <path d="M640.3,628.0 C643.4,618.9 647.4,612.2 657.5,609.8 C667.6,607.4 686.2,613.0 700.8,613.5 C715.5,614.0 735.4,609.6 745.5,612.7 C755.7,615.9 759.6,623.1 761.8,632.4 C763.9,641.7 762.2,659.8 758.4,668.7 C754.6,677.6 748.6,683.5 738.8,686.0 C728.9,688.6 712.8,684.3 699.1,683.9 C685.5,683.6 667.0,686.9 657.0,683.7 C646.9,680.4 641.6,673.6 638.8,664.3 C636.1,655.0 637.2,637.0 640.3,628.0 Z" fill="none" stroke="#000000" stroke-width="13" stroke-linejoin="round" stroke-linecap="round"/>
  <path d="M634.3,684.6 C637.4,675.4 641.7,668.5 653.3,665.5 C664.9,662.5 686.9,667.1 704.0,666.7 C721.2,666.3 744.1,660.8 756.1,663.4 C768.1,666.0 773.2,672.9 776.2,682.1 C779.2,691.3 778.3,709.4 774.3,718.5 C770.4,727.7 763.8,733.9 752.4,737.0 C741.0,740.1 721.9,736.8 706.0,737.2 C690.1,737.5 668.7,742.0 656.8,739.3 C644.9,736.6 638.3,730.1 634.5,721.0 C630.8,711.9 631.1,693.8 634.3,684.6 Z" fill="#c2884e"/>
  <g clip-path="url(#k9)"><path d="M576.9,710.7 C582.7,710.1 600.3,708.4 612.0,707.0 C623.8,705.7 635.5,704.0 647.2,702.5 C659.0,701.1 670.7,699.7 682.4,698.6 C694.1,697.5 705.9,696.7 717.6,696.1 C729.3,695.5 741.0,695.3 752.8,694.9 C764.5,694.5 776.2,694.4 788.0,693.8 C799.7,693.3 817.3,692.0 823.1,691.6 L823.1,788.1 L576.9,788.1 Z" fill="#a9713f"/></g>
  <path d="M634.3,684.6 C637.4,675.4 641.7,668.5 653.3,665.5 C664.9,662.5 686.9,667.1 704.0,666.7 C721.2,666.3 744.1,660.8 756.1,663.4 C768.1,666.0 773.2,672.9 776.2,682.1 C779.2,691.3 778.3,709.4 774.3,718.5 C770.4,727.7 763.8,733.9 752.4,737.0 C741.0,740.1 721.9,736.8 706.0,737.2 C690.1,737.5 668.7,742.0 656.8,739.3 C644.9,736.6 638.3,730.1 634.5,721.0 C630.8,711.9 631.1,693.8 634.3,684.6 Z" fill="none" stroke="#000000" stroke-width="13" stroke-linejoin="round" stroke-linecap="round"/>
  <path d="M612.3,733.8 C616.5,724.7 622.1,718.1 636.2,715.8 C650.3,713.5 676.3,719.3 696.8,719.9 C717.4,720.5 745.1,716.3 759.4,719.6 C773.6,722.8 779.2,730.1 782.3,739.4 C785.4,748.8 783.3,766.8 778.0,775.7 C772.7,784.6 764.4,790.4 750.6,792.8 C736.8,795.3 714.2,790.9 695.1,790.4 C676.0,789.8 650.2,793.0 636.1,789.7 C622.0,786.3 614.5,779.4 610.5,770.1 C606.5,760.8 608.0,742.8 612.3,733.8 Z" fill="#c2884e"/>
  <g clip-path="url(#k10)"><path d="M552.4,762.8 C559.4,762.0 580.5,759.3 594.6,757.9 C608.6,756.6 622.7,755.5 636.8,754.7 C650.8,753.9 664.9,753.6 678.9,753.2 C693.0,752.7 707.0,752.5 721.1,751.9 C735.1,751.3 749.2,750.6 763.2,749.5 C777.3,748.4 791.4,746.8 805.4,745.2 C819.5,743.6 840.6,740.7 847.6,739.8 L847.6,858.6 L552.4,858.6 Z" fill="#a9713f"/></g>
  <path d="M612.3,733.8 C616.5,724.7 622.1,718.1 636.2,715.8 C650.3,713.5 676.3,719.3 696.8,719.9 C717.4,720.5 745.1,716.3 759.4,719.6 C773.6,722.8 779.2,730.1 782.3,739.4 C785.4,748.8 783.3,766.8 778.0,775.7 C772.7,784.6 764.4,790.4 750.6,792.8 C736.8,795.3 714.2,790.9 695.1,790.4 C676.0,789.8 650.2,793.0 636.1,789.7 C622.0,786.3 614.5,779.4 610.5,770.1 C606.5,760.8 608.0,742.8 612.3,733.8 Z" fill="none" stroke="#000000" stroke-width="13" stroke-linejoin="round" stroke-linecap="round"/>
  <path d="M605.4,791.9 C610.0,782.6 616.2,775.7 632.8,772.5 C649.4,769.4 680.6,773.7 705.0,773.1 C729.5,772.6 762.2,766.8 779.3,769.2 C796.4,771.6 803.4,778.5 807.6,787.7 C811.9,796.9 810.3,815.0 804.5,824.1 C798.8,833.3 789.3,839.6 773.1,842.8 C756.8,846.1 729.7,843.0 707.0,843.6 C684.3,844.1 653.8,848.8 636.9,846.3 C620.0,843.7 610.7,837.3 605.4,828.2 C600.2,819.2 600.9,801.1 605.4,791.9 Z" fill="#c2884e"/>
  <g clip-path="url(#k11)"><path d="M524.6,815.7 C532.9,815.3 558.0,814.2 574.7,813.6 C591.4,813.1 608.1,812.9 624.8,812.2 C641.5,811.5 658.2,810.8 674.9,809.5 C691.6,808.3 708.4,806.5 725.1,804.7 C741.8,802.8 758.5,800.4 775.2,798.4 C791.9,796.3 808.6,794.1 825.3,792.4 C842.0,790.8 867.1,789.1 875.4,788.4 L875.4,931.4 L524.6,931.4 Z" fill="#a9713f"/></g>
  <path d="M605.4,791.9 C610.0,782.6 616.2,775.7 632.8,772.5 C649.4,769.4 680.6,773.7 705.0,773.1 C729.5,772.6 762.2,766.8 779.3,769.2 C796.4,771.6 803.4,778.5 807.6,787.7 C811.9,796.9 810.3,815.0 804.5,824.1 C798.8,833.3 789.3,839.6 773.1,842.8 C756.8,846.1 729.7,843.0 707.0,843.6 C684.3,844.1 653.8,848.8 636.9,846.3 C620.0,843.7 610.7,837.3 605.4,828.2 C600.2,819.2 600.9,801.1 605.4,791.9 Z" fill="none" stroke="#000000" stroke-width="13" stroke-linejoin="round" stroke-linecap="round"/>
  <path d="M580.1,839.4 C586.0,830.4 593.6,823.8 613.2,821.7 C632.8,819.5 669.2,825.5 697.8,826.3 C726.5,827.2 765.1,823.2 785.0,826.6 C804.9,830.0 812.8,837.3 817.2,846.7 C821.6,856.1 818.7,874.1 811.5,882.9 C804.2,891.8 792.7,897.5 773.5,899.8 C754.3,902.1 722.7,897.5 696.1,896.8 C669.5,896.1 633.5,899.0 613.8,895.5 C594.2,892.0 583.6,885.1 578.0,875.7 C572.4,866.4 574.2,848.4 580.1,839.4 Z" fill="#c2884e"/>
  <g clip-path="url(#k12)"><path d="M494.3,875.1 C504.1,874.6 533.5,873.6 553.1,872.2 C572.6,870.8 592.2,868.9 611.8,866.8 C631.4,864.6 651.0,861.9 670.6,859.5 C690.2,857.0 709.8,854.4 729.4,852.3 C749.0,850.3 768.6,848.6 788.2,847.3 C807.8,846.1 827.4,845.5 846.9,844.8 C866.5,844.1 895.9,843.4 905.7,843.2 L905.7,1006.0 L494.3,1006.0 Z" fill="#a9713f"/></g>
  <path d="M580.1,839.4 C586.0,830.4 593.6,823.8 613.2,821.7 C632.8,819.5 669.2,825.5 697.8,826.3 C726.5,827.2 765.1,823.2 785.0,826.6 C804.9,830.0 812.8,837.3 817.2,846.7 C821.6,856.1 818.7,874.1 811.5,882.9 C804.2,891.8 792.7,897.5 773.5,899.8 C754.3,902.1 722.7,897.5 696.1,896.8 C669.5,896.1 633.5,899.0 613.8,895.5 C594.2,892.0 583.6,885.1 578.0,875.7 C572.4,866.4 574.2,848.4 580.1,839.4 Z" fill="none" stroke="#000000" stroke-width="13" stroke-linejoin="round" stroke-linecap="round"/>
  <path d="M567.7,899.3 C574.0,889.9 582.5,883.0 605.0,879.7 C627.6,876.4 669.9,880.3 703.0,879.5 C736.2,878.7 780.6,872.6 803.7,874.9 C826.9,877.1 836.4,884.0 842.1,893.1 C847.7,902.2 845.4,920.3 837.5,929.6 C829.6,938.8 816.7,945.2 794.6,948.6 C772.5,952.0 735.8,949.2 705.0,950.0 C674.2,950.8 632.8,955.8 609.9,953.4 C586.9,951.0 574.4,944.7 567.4,935.7 C560.3,926.6 561.5,908.6 567.7,899.3 Z" fill="#c2884e"/>
  <g clip-path="url(#k13)"><path d="M462.0,931.7 C473.3,930.3 507.3,926.2 530.0,923.4 C552.7,920.6 575.3,917.4 598.0,915.0 C620.7,912.6 643.3,910.5 666.0,908.9 C688.7,907.4 711.3,906.5 734.0,905.7 C756.7,904.9 779.3,904.7 802.0,903.8 C824.7,903.0 847.3,902.2 870.0,900.7 C892.7,899.2 926.7,895.7 938.0,894.7 L938.0,1082.0 L462.0,1082.0 Z" fill="#a9713f"/></g>
  <path d="M567.7,899.3 C574.0,889.9 582.5,883.0 605.0,879.7 C627.6,876.4 669.9,880.3 703.0,879.5 C736.2,878.7 780.6,872.6 803.7,874.9 C826.9,877.1 836.4,884.0 842.1,893.1 C847.7,902.2 845.4,920.3 837.5,929.6 C829.6,938.8 816.7,945.2 794.6,948.6 C772.5,952.0 735.8,949.2 705.0,950.0 C674.2,950.8 632.8,955.8 609.9,953.4 C586.9,951.0 574.4,944.7 567.4,935.7 C560.3,926.6 561.5,908.6 567.7,899.3 Z" fill="none" stroke="#000000" stroke-width="13" stroke-linejoin="round" stroke-linecap="round"/>
  <text x="612" y="992" font-family="Verdana,DejaVu Sans,sans-serif" font-size="20" font-weight="bold" fill="#3f3026">segmented palm</text>
  <path d="M60,946 L900,946" stroke="#ff9d52" stroke-width="6" stroke-dasharray="20 16" fill="none"/>
  <text x="60" y="1044" font-family="Verdana,DejaVu Sans,sans-serif" font-size="19" font-weight="normal" fill="#e0813c">y = 1000. Every trunk splays into 3 unequal, shallow root lobes;</text>
  <text x="60" y="1072" font-family="Verdana,DejaVu Sans,sans-serif" font-size="19" font-weight="normal" fill="#e0813c">notches stay 15-30px deep &#8212; deeper reads as claws at game size.</text>
  <text x="1000" y="198" font-family="Verdana,DejaVu Sans,sans-serif" font-size="26" font-weight="bold" fill="#3f3026">TWO-TONE RECIPE  (base / shadow)</text>
  <text x="1000" y="228" font-family="Verdana,DejaVu Sans,sans-serif" font-size="18" font-weight="normal" fill="#3f3026">shadow = base hue, ~10 deg cooler, S +0.05, V -0.09..-0.14, hard edge</text>
  <path d="M1005.6,250.2 Q1020.8,247.8 1033.0,257.1 Q1045.1,264.5 1051.2,277.3 Q1056.5,291.2 1048.0,303.3 Q1041.8,316.5 1028.6,322.5 Q1014.7,329.3 1000.0,324.1 Q985.8,321.0 975.3,310.8 Q965.2,299.9 968.5,285.4 Q969.6,271.3 979.8,261.6 Q990.3,250.4 1005.6,250.2 Z" fill="#7ec850"/>
  <g clip-path="url(#k14)"><path d="M938.6,299.4 C942.0,299.1 952.2,298.4 959.0,297.5 C965.8,296.6 972.6,295.5 979.4,294.0 C986.2,292.5 993.0,290.5 999.8,288.5 C1006.6,286.5 1013.4,284.1 1020.2,282.2 C1027.0,280.2 1033.8,278.2 1040.6,276.7 C1047.4,275.2 1054.2,274.1 1061.0,273.2 C1067.8,272.3 1078.0,271.6 1081.4,271.3 L1081.4,402.0 L938.6,402.0 Z" fill="#5da23c"/></g>
  <path d="M1005.6,250.2 Q1020.8,247.8 1033.0,257.1 Q1045.1,264.5 1051.2,277.3 Q1056.5,291.2 1048.0,303.3 Q1041.8,316.5 1028.6,322.5 Q1014.7,329.3 1000.0,324.1 Q985.8,321.0 975.3,310.8 Q965.2,299.9 968.5,285.4 Q969.6,271.3 979.8,261.6 Q990.3,250.4 1005.6,250.2 Z" fill="none" stroke="#000000" stroke-width="10" stroke-linejoin="round" stroke-linecap="round"/>
  <text x="1072" y="284" font-family="Verdana,DejaVu Sans,sans-serif" font-size="19" font-weight="bold" fill="#3f3026">grass</text>
  <text x="1072" y="310" font-family="Verdana,DejaVu Sans,sans-serif" font-size="15" font-weight="normal" fill="#3f3026">#7ec850 / #5da23c</text>
  <path d="M1277.6,250.2 Q1292.8,247.8 1305.0,257.1 Q1317.1,264.5 1323.2,277.3 Q1328.5,291.2 1320.0,303.3 Q1313.8,316.5 1300.6,322.5 Q1286.7,329.3 1272.0,324.1 Q1257.8,321.0 1247.3,310.8 Q1237.2,299.9 1240.5,285.4 Q1241.6,271.3 1251.8,261.6 Q1262.3,250.4 1277.6,250.2 Z" fill="#b0e070"/>
  <g clip-path="url(#k15)"><path d="M1210.6,299.4 C1214.0,299.1 1224.2,298.4 1231.0,297.5 C1237.8,296.6 1244.6,295.5 1251.4,294.0 C1258.2,292.5 1265.0,290.5 1271.8,288.5 C1278.6,286.5 1285.4,284.1 1292.2,282.2 C1299.0,280.2 1305.8,278.2 1312.6,276.7 C1319.4,275.2 1326.2,274.1 1333.0,273.2 C1339.8,272.3 1350.0,271.6 1353.4,271.3 L1353.4,402.0 L1210.6,402.0 Z" fill="#7ec850"/></g>
  <path d="M1277.6,250.2 Q1292.8,247.8 1305.0,257.1 Q1317.1,264.5 1323.2,277.3 Q1328.5,291.2 1320.0,303.3 Q1313.8,316.5 1300.6,322.5 Q1286.7,329.3 1272.0,324.1 Q1257.8,321.0 1247.3,310.8 Q1237.2,299.9 1240.5,285.4 Q1241.6,271.3 1251.8,261.6 Q1262.3,250.4 1277.6,250.2 Z" fill="none" stroke="#000000" stroke-width="10" stroke-linejoin="round" stroke-linecap="round"/>
  <text x="1344" y="284" font-family="Verdana,DejaVu Sans,sans-serif" font-size="19" font-weight="bold" fill="#3f3026">leaf</text>
  <text x="1344" y="310" font-family="Verdana,DejaVu Sans,sans-serif" font-size="15" font-weight="normal" fill="#3f3026">#b0e070 / #7ec850</text>
  <path d="M1549.6,250.2 Q1564.8,247.8 1577.0,257.1 Q1589.1,264.5 1595.2,277.3 Q1600.5,291.2 1592.0,303.3 Q1585.8,316.5 1572.6,322.5 Q1558.7,329.3 1544.0,324.1 Q1529.8,321.0 1519.3,310.8 Q1509.2,299.9 1512.5,285.4 Q1513.6,271.3 1523.8,261.6 Q1534.3,250.4 1549.6,250.2 Z" fill="#a9713f"/>
  <g clip-path="url(#k16)"><path d="M1482.6,299.4 C1486.0,299.1 1496.2,298.4 1503.0,297.5 C1509.8,296.6 1516.6,295.5 1523.4,294.0 C1530.2,292.5 1537.0,290.5 1543.8,288.5 C1550.6,286.5 1557.4,284.1 1564.2,282.2 C1571.0,280.2 1577.8,278.2 1584.6,276.7 C1591.4,275.2 1598.2,274.1 1605.0,273.2 C1611.8,272.3 1622.0,271.6 1625.4,271.3 L1625.4,402.0 L1482.6,402.0 Z" fill="#8a5a33"/></g>
  <path d="M1549.6,250.2 Q1564.8,247.8 1577.0,257.1 Q1589.1,264.5 1595.2,277.3 Q1600.5,291.2 1592.0,303.3 Q1585.8,316.5 1572.6,322.5 Q1558.7,329.3 1544.0,324.1 Q1529.8,321.0 1519.3,310.8 Q1509.2,299.9 1512.5,285.4 Q1513.6,271.3 1523.8,261.6 Q1534.3,250.4 1549.6,250.2 Z" fill="none" stroke="#000000" stroke-width="10" stroke-linejoin="round" stroke-linecap="round"/>
  <text x="1616" y="284" font-family="Verdana,DejaVu Sans,sans-serif" font-size="19" font-weight="bold" fill="#3f3026">soil</text>
  <text x="1616" y="310" font-family="Verdana,DejaVu Sans,sans-serif" font-size="15" font-weight="normal" fill="#3f3026">#a9713f / #8a5a33</text>
  <path d="M1005.6,366.2 Q1020.8,363.8 1033.0,373.1 Q1045.1,380.5 1051.2,393.3 Q1056.5,407.2 1048.0,419.3 Q1041.8,432.5 1028.6,438.5 Q1014.7,445.3 1000.0,440.1 Q985.8,437.0 975.3,426.8 Q965.2,415.9 968.5,401.4 Q969.6,387.3 979.8,377.6 Q990.3,366.4 1005.6,366.2 Z" fill="#c2884e"/>
  <g clip-path="url(#k17)"><path d="M938.6,415.4 C942.0,415.1 952.2,414.4 959.0,413.5 C965.8,412.6 972.6,411.5 979.4,410.0 C986.2,408.5 993.0,406.5 999.8,404.5 C1006.6,402.5 1013.4,400.1 1020.2,398.2 C1027.0,396.2 1033.8,394.2 1040.6,392.7 C1047.4,391.2 1054.2,390.1 1061.0,389.2 C1067.8,388.3 1078.0,387.6 1081.4,387.3 L1081.4,518.0 L938.6,518.0 Z" fill="#a9713f"/></g>
  <path d="M1005.6,366.2 Q1020.8,363.8 1033.0,373.1 Q1045.1,380.5 1051.2,393.3 Q1056.5,407.2 1048.0,419.3 Q1041.8,432.5 1028.6,438.5 Q1014.7,445.3 1000.0,440.1 Q985.8,437.0 975.3,426.8 Q965.2,415.9 968.5,401.4 Q969.6,387.3 979.8,377.6 Q990.3,366.4 1005.6,366.2 Z" fill="none" stroke="#000000" stroke-width="10" stroke-linejoin="round" stroke-linecap="round"/>
  <text x="1072" y="400" font-family="Verdana,DejaVu Sans,sans-serif" font-size="19" font-weight="bold" fill="#3f3026">bark-lite</text>
  <text x="1072" y="426" font-family="Verdana,DejaVu Sans,sans-serif" font-size="15" font-weight="normal" fill="#3f3026">#c2884e / #a9713f</text>
  <path d="M1277.6,366.2 Q1292.8,363.8 1305.0,373.1 Q1317.1,380.5 1323.2,393.3 Q1328.5,407.2 1320.0,419.3 Q1313.8,432.5 1300.6,438.5 Q1286.7,445.3 1272.0,440.1 Q1257.8,437.0 1247.3,426.8 Q1237.2,415.9 1240.5,401.4 Q1241.6,387.3 1251.8,377.6 Q1262.3,366.4 1277.6,366.2 Z" fill="#ffd23f"/>
  <g clip-path="url(#k18)"><path d="M1210.6,415.4 C1214.0,415.1 1224.2,414.4 1231.0,413.5 C1237.8,412.6 1244.6,411.5 1251.4,410.0 C1258.2,408.5 1265.0,406.5 1271.8,404.5 C1278.6,402.5 1285.4,400.1 1292.2,398.2 C1299.0,396.2 1305.8,394.2 1312.6,392.7 C1319.4,391.2 1326.2,390.1 1333.0,389.2 C1339.8,388.3 1350.0,387.6 1353.4,387.3 L1353.4,518.0 L1210.6,518.0 Z" fill="#e8a52a"/></g>
  <path d="M1277.6,366.2 Q1292.8,363.8 1305.0,373.1 Q1317.1,380.5 1323.2,393.3 Q1328.5,407.2 1320.0,419.3 Q1313.8,432.5 1300.6,438.5 Q1286.7,445.3 1272.0,440.1 Q1257.8,437.0 1247.3,426.8 Q1237.2,415.9 1240.5,401.4 Q1241.6,387.3 1251.8,377.6 Q1262.3,366.4 1277.6,366.2 Z" fill="none" stroke="#000000" stroke-width="10" stroke-linejoin="round" stroke-linecap="round"/>
  <text x="1344" y="400" font-family="Verdana,DejaVu Sans,sans-serif" font-size="19" font-weight="bold" fill="#3f3026">sun</text>
  <text x="1344" y="426" font-family="Verdana,DejaVu Sans,sans-serif" font-size="15" font-weight="normal" fill="#3f3026">#ffd23f / #e8a52a</text>
  <path d="M1549.6,366.2 Q1564.8,363.8 1577.0,373.1 Q1589.1,380.5 1595.2,393.3 Q1600.5,407.2 1592.0,419.3 Q1585.8,432.5 1572.6,438.5 Q1558.7,445.3 1544.0,440.1 Q1529.8,437.0 1519.3,426.8 Q1509.2,415.9 1512.5,401.4 Q1513.6,387.3 1523.8,377.6 Q1534.3,366.4 1549.6,366.2 Z" fill="#ff9d52"/>
  <g clip-path="url(#k19)"><path d="M1482.6,415.4 C1486.0,415.1 1496.2,414.4 1503.0,413.5 C1509.8,412.6 1516.6,411.5 1523.4,410.0 C1530.2,408.5 1537.0,406.5 1543.8,404.5 C1550.6,402.5 1557.4,400.1 1564.2,398.2 C1571.0,396.2 1577.8,394.2 1584.6,392.7 C1591.4,391.2 1598.2,390.1 1605.0,389.2 C1611.8,388.3 1622.0,387.6 1625.4,387.3 L1625.4,518.0 L1482.6,518.0 Z" fill="#e0813c"/></g>
  <path d="M1549.6,366.2 Q1564.8,363.8 1577.0,373.1 Q1589.1,380.5 1595.2,393.3 Q1600.5,407.2 1592.0,419.3 Q1585.8,432.5 1572.6,438.5 Q1558.7,445.3 1544.0,440.1 Q1529.8,437.0 1519.3,426.8 Q1509.2,415.9 1512.5,401.4 Q1513.6,387.3 1523.8,377.6 Q1534.3,366.4 1549.6,366.2 Z" fill="none" stroke="#000000" stroke-width="10" stroke-linejoin="round" stroke-linecap="round"/>
  <text x="1616" y="400" font-family="Verdana,DejaVu Sans,sans-serif" font-size="19" font-weight="bold" fill="#3f3026">accent</text>
  <text x="1616" y="426" font-family="Verdana,DejaVu Sans,sans-serif" font-size="15" font-weight="normal" fill="#3f3026">#ff9d52 / #e0813c</text>
  <path d="M1005.6,482.2 Q1020.8,479.8 1033.0,489.1 Q1045.1,496.5 1051.2,509.3 Q1056.5,523.2 1048.0,535.3 Q1041.8,548.5 1028.6,554.5 Q1014.7,561.3 1000.0,556.1 Q985.8,553.0 975.3,542.8 Q965.2,531.9 968.5,517.4 Q969.6,503.3 979.8,493.6 Q990.3,482.4 1005.6,482.2 Z" fill="#e8493c"/>
  <g clip-path="url(#k20)"><path d="M938.6,531.4 C942.0,531.1 952.2,530.4 959.0,529.5 C965.8,528.6 972.6,527.5 979.4,526.0 C986.2,524.5 993.0,522.5 999.8,520.5 C1006.6,518.5 1013.4,516.1 1020.2,514.2 C1027.0,512.2 1033.8,510.2 1040.6,508.7 C1047.4,507.2 1054.2,506.1 1061.0,505.2 C1067.8,504.3 1078.0,503.6 1081.4,503.3 L1081.4,634.0 L938.6,634.0 Z" fill="#c73a30"/></g>
  <path d="M1005.6,482.2 Q1020.8,479.8 1033.0,489.1 Q1045.1,496.5 1051.2,509.3 Q1056.5,523.2 1048.0,535.3 Q1041.8,548.5 1028.6,554.5 Q1014.7,561.3 1000.0,556.1 Q985.8,553.0 975.3,542.8 Q965.2,531.9 968.5,517.4 Q969.6,503.3 979.8,493.6 Q990.3,482.4 1005.6,482.2 Z" fill="none" stroke="#000000" stroke-width="10" stroke-linejoin="round" stroke-linecap="round"/>
  <text x="1072" y="516" font-family="Verdana,DejaVu Sans,sans-serif" font-size="19" font-weight="bold" fill="#3f3026">fruit</text>
  <text x="1072" y="542" font-family="Verdana,DejaVu Sans,sans-serif" font-size="15" font-weight="normal" fill="#3f3026">#e8493c / #c73a30</text>
  <path d="M1277.6,482.2 Q1292.8,479.8 1305.0,489.1 Q1317.1,496.5 1323.2,509.3 Q1328.5,523.2 1320.0,535.3 Q1313.8,548.5 1300.6,554.5 Q1286.7,561.3 1272.0,556.1 Q1257.8,553.0 1247.3,542.8 Q1237.2,531.9 1240.5,517.4 Q1241.6,503.3 1251.8,493.6 Q1262.3,482.4 1277.6,482.2 Z" fill="#ef6a3c"/>
  <g clip-path="url(#k21)"><path d="M1210.6,531.4 C1214.0,531.1 1224.2,530.4 1231.0,529.5 C1237.8,528.6 1244.6,527.5 1251.4,526.0 C1258.2,524.5 1265.0,522.5 1271.8,520.5 C1278.6,518.5 1285.4,516.1 1292.2,514.2 C1299.0,512.2 1305.8,510.2 1312.6,508.7 C1319.4,507.2 1326.2,506.1 1333.0,505.2 C1339.8,504.3 1350.0,503.6 1353.4,503.3 L1353.4,634.0 L1210.6,634.0 Z" fill="#cf5530"/></g>
  <path d="M1277.6,482.2 Q1292.8,479.8 1305.0,489.1 Q1317.1,496.5 1323.2,509.3 Q1328.5,523.2 1320.0,535.3 Q1313.8,548.5 1300.6,554.5 Q1286.7,561.3 1272.0,556.1 Q1257.8,553.0 1247.3,542.8 Q1237.2,531.9 1240.5,517.4 Q1241.6,503.3 1251.8,493.6 Q1262.3,482.4 1277.6,482.2 Z" fill="none" stroke="#000000" stroke-width="10" stroke-linejoin="round" stroke-linecap="round"/>
  <text x="1344" y="516" font-family="Verdana,DejaVu Sans,sans-serif" font-size="19" font-weight="bold" fill="#3f3026">ember</text>
  <text x="1344" y="542" font-family="Verdana,DejaVu Sans,sans-serif" font-size="15" font-weight="normal" fill="#3f3026">#ef6a3c / #cf5530</text>
  <path d="M1549.6,482.2 Q1564.8,479.8 1577.0,489.1 Q1589.1,496.5 1595.2,509.3 Q1600.5,523.2 1592.0,535.3 Q1585.8,548.5 1572.6,554.5 Q1558.7,561.3 1544.0,556.1 Q1529.8,553.0 1519.3,542.8 Q1509.2,531.9 1512.5,517.4 Q1513.6,503.3 1523.8,493.6 Q1534.3,482.4 1549.6,482.2 Z" fill="#b8bcc8"/>
  <g clip-path="url(#k22)"><path d="M1482.6,531.4 C1486.0,531.1 1496.2,530.4 1503.0,529.5 C1509.8,528.6 1516.6,527.5 1523.4,526.0 C1530.2,524.5 1537.0,522.5 1543.8,520.5 C1550.6,518.5 1557.4,516.1 1564.2,514.2 C1571.0,512.2 1577.8,510.2 1584.6,508.7 C1591.4,507.2 1598.2,506.1 1605.0,505.2 C1611.8,504.3 1622.0,503.6 1625.4,503.3 L1625.4,634.0 L1482.6,634.0 Z" fill="#969cae"/></g>
  <path d="M1549.6,482.2 Q1564.8,479.8 1577.0,489.1 Q1589.1,496.5 1595.2,509.3 Q1600.5,523.2 1592.0,535.3 Q1585.8,548.5 1572.6,554.5 Q1558.7,561.3 1544.0,556.1 Q1529.8,553.0 1519.3,542.8 Q1509.2,531.9 1512.5,517.4 Q1513.6,503.3 1523.8,493.6 Q1534.3,482.4 1549.6,482.2 Z" fill="none" stroke="#000000" stroke-width="10" stroke-linejoin="round" stroke-linecap="round"/>
  <text x="1616" y="516" font-family="Verdana,DejaVu Sans,sans-serif" font-size="19" font-weight="bold" fill="#3f3026">steel</text>
  <text x="1616" y="542" font-family="Verdana,DejaVu Sans,sans-serif" font-size="15" font-weight="normal" fill="#3f3026">#b8bcc8 / #969cae</text>
  <path d="M1005.6,598.2 Q1020.8,595.8 1033.0,605.1 Q1045.1,612.5 1051.2,625.3 Q1056.5,639.2 1048.0,651.3 Q1041.8,664.5 1028.6,670.5 Q1014.7,677.3 1000.0,672.1 Q985.8,669.0 975.3,658.8 Q965.2,647.9 968.5,633.4 Q969.6,619.3 979.8,609.6 Q990.3,598.4 1005.6,598.2 Z" fill="#8fd3ff"/>
  <g clip-path="url(#k23)"><path d="M938.6,647.4 C942.0,647.1 952.2,646.4 959.0,645.5 C965.8,644.6 972.6,643.5 979.4,642.0 C986.2,640.5 993.0,638.5 999.8,636.5 C1006.6,634.5 1013.4,632.1 1020.2,630.2 C1027.0,628.2 1033.8,626.2 1040.6,624.7 C1047.4,623.2 1054.2,622.1 1061.0,621.2 C1067.8,620.3 1078.0,619.6 1081.4,619.3 L1081.4,750.0 L938.6,750.0 Z" fill="#62b0e6"/></g>
  <path d="M1005.6,598.2 Q1020.8,595.8 1033.0,605.1 Q1045.1,612.5 1051.2,625.3 Q1056.5,639.2 1048.0,651.3 Q1041.8,664.5 1028.6,670.5 Q1014.7,677.3 1000.0,672.1 Q985.8,669.0 975.3,658.8 Q965.2,647.9 968.5,633.4 Q969.6,619.3 979.8,609.6 Q990.3,598.4 1005.6,598.2 Z" fill="none" stroke="#000000" stroke-width="10" stroke-linejoin="round" stroke-linecap="round"/>
  <text x="1072" y="632" font-family="Verdana,DejaVu Sans,sans-serif" font-size="19" font-weight="bold" fill="#3f3026">sky-hi</text>
  <text x="1072" y="658" font-family="Verdana,DejaVu Sans,sans-serif" font-size="15" font-weight="normal" fill="#3f3026">#8fd3ff / #62b0e6</text>
  <path d="M1277.6,598.2 Q1292.8,595.8 1305.0,605.1 Q1317.1,612.5 1323.2,625.3 Q1328.5,639.2 1320.0,651.3 Q1313.8,664.5 1300.6,670.5 Q1286.7,677.3 1272.0,672.1 Q1257.8,669.0 1247.3,658.8 Q1237.2,647.9 1240.5,633.4 Q1241.6,619.3 1251.8,609.6 Q1262.3,598.4 1277.6,598.2 Z" fill="#fff7e6"/>
  <g clip-path="url(#k24)"><path d="M1210.6,647.4 C1214.0,647.1 1224.2,646.4 1231.0,645.5 C1237.8,644.6 1244.6,643.5 1251.4,642.0 C1258.2,640.5 1265.0,638.5 1271.8,636.5 C1278.6,634.5 1285.4,632.1 1292.2,630.2 C1299.0,628.2 1305.8,626.2 1312.6,624.7 C1319.4,623.2 1326.2,622.1 1333.0,621.2 C1339.8,620.3 1350.0,619.6 1353.4,619.3 L1353.4,750.0 L1210.6,750.0 Z" fill="#e8dcc4"/></g>
  <path d="M1277.6,598.2 Q1292.8,595.8 1305.0,605.1 Q1317.1,612.5 1323.2,625.3 Q1328.5,639.2 1320.0,651.3 Q1313.8,664.5 1300.6,670.5 Q1286.7,677.3 1272.0,672.1 Q1257.8,669.0 1247.3,658.8 Q1237.2,647.9 1240.5,633.4 Q1241.6,619.3 1251.8,609.6 Q1262.3,598.4 1277.6,598.2 Z" fill="none" stroke="#000000" stroke-width="10" stroke-linejoin="round" stroke-linecap="round"/>
  <text x="1344" y="632" font-family="Verdana,DejaVu Sans,sans-serif" font-size="19" font-weight="bold" fill="#3f3026">cream</text>
  <text x="1344" y="658" font-family="Verdana,DejaVu Sans,sans-serif" font-size="15" font-weight="normal" fill="#3f3026">#fff7e6 / #e8dcc4</text>
  <path d="M1549.6,598.2 Q1564.8,595.8 1577.0,605.1 Q1589.1,612.5 1595.2,625.3 Q1600.5,639.2 1592.0,651.3 Q1585.8,664.5 1572.6,670.5 Q1558.7,677.3 1544.0,672.1 Q1529.8,669.0 1519.3,658.8 Q1509.2,647.9 1512.5,633.4 Q1513.6,619.3 1523.8,609.6 Q1534.3,598.4 1549.6,598.2 Z" fill="#c65fd1"/>
  <g clip-path="url(#k25)"><path d="M1482.6,647.4 C1486.0,647.1 1496.2,646.4 1503.0,645.5 C1509.8,644.6 1516.6,643.5 1523.4,642.0 C1530.2,640.5 1537.0,638.5 1543.8,636.5 C1550.6,634.5 1557.4,632.1 1564.2,630.2 C1571.0,628.2 1577.8,626.2 1584.6,624.7 C1591.4,623.2 1598.2,622.1 1605.0,621.2 C1611.8,620.3 1622.0,619.6 1625.4,619.3 L1625.4,750.0 L1482.6,750.0 Z" fill="#a94bb3"/></g>
  <path d="M1549.6,598.2 Q1564.8,595.8 1577.0,605.1 Q1589.1,612.5 1595.2,625.3 Q1600.5,639.2 1592.0,651.3 Q1585.8,664.5 1572.6,670.5 Q1558.7,677.3 1544.0,672.1 Q1529.8,669.0 1519.3,658.8 Q1509.2,647.9 1512.5,633.4 Q1513.6,619.3 1523.8,609.6 Q1534.3,598.4 1549.6,598.2 Z" fill="none" stroke="#000000" stroke-width="10" stroke-linejoin="round" stroke-linecap="round"/>
  <text x="1616" y="632" font-family="Verdana,DejaVu Sans,sans-serif" font-size="19" font-weight="bold" fill="#3f3026">berry</text>
  <text x="1616" y="658" font-family="Verdana,DejaVu Sans,sans-serif" font-size="15" font-weight="normal" fill="#3f3026">#c65fd1 / #a94bb3</text>
  <text x="1000" y="792" font-family="Verdana,DejaVu Sans,sans-serif" font-size="26" font-weight="bold" fill="#3f3026">FACE SYSTEM &#8212; 6 SWAPPABLE STATES</text>
  <text x="1000" y="822" font-family="Verdana,DejaVu Sans,sans-serif" font-size="18" font-weight="normal" fill="#3f3026">silly + wacky only. state = eyes(1) + mouth(1) [+ brows(1)]. Blush always on.</text>
  <path d="M1064.4,838.5 Q1093.6,836.5 1119.5,850.3 Q1142.7,865.9 1158.9,888.7 Q1170.4,914.4 1164.0,941.9 Q1154.5,967.8 1134.9,987.3 Q1112.6,1006.1 1083.7,1010.4 Q1054.8,1009.3 1028.0,998.5 Q1002.8,984.7 990.8,958.6 Q981.0,933.2 983.1,905.9 Q991.0,878.7 1012.4,860.1 Q1036.5,844.7 1064.4,838.5 Z" fill="#b0e070"/>
  <g clip-path="url(#k26)"><path d="M917.6,953.2 C925.0,952.4 947.4,950.4 962.3,948.1 C977.2,945.8 992.1,943.1 1007.0,939.4 C1021.9,935.8 1036.8,931.0 1051.7,926.3 C1066.6,921.6 1081.4,915.9 1096.3,911.3 C1111.2,906.6 1126.1,901.8 1141.0,898.2 C1155.9,894.6 1170.8,891.9 1185.7,889.6 C1200.6,887.3 1223.0,885.4 1230.4,884.5 L1230.4,1182.0 L917.6,1182.0 Z" fill="#7ec850"/></g>
  <path d="M1064.4,838.5 Q1093.6,836.5 1119.5,850.3 Q1142.7,865.9 1158.9,888.7 Q1170.4,914.4 1164.0,941.9 Q1154.5,967.8 1134.9,987.3 Q1112.6,1006.1 1083.7,1010.4 Q1054.8,1009.3 1028.0,998.5 Q1002.8,984.7 990.8,958.6 Q981.0,933.2 983.1,905.9 Q991.0,878.7 1012.4,860.1 Q1036.5,844.7 1064.4,838.5 Z" fill="none" stroke="#000000" stroke-width="13" stroke-linejoin="round" stroke-linecap="round"/>
  <g id="face" transform="translate(1074.0,924.0) rotate(0.0) scale(0.7600)"><g id="face-blush"><ellipse cx="-86" cy="30" rx="31" ry="23" fill="#ff9d52" opacity="0.45"/><ellipse cx="88" cy="26" rx="27" ry="20" fill="#ff9d52" opacity="0.45"/></g><g id="face-neutral"><ellipse cx="-46" cy="-14" rx="19" ry="26" fill="#3f3026" transform="rotate(-7 -46 -14)"/><ellipse cx="48" cy="-18" rx="18" ry="24" fill="#3f3026" transform="rotate(6 48 -18)"/><path d="M-26,40 Q2,58 32,37" fill="none" stroke="#3f3026" stroke-width="15" stroke-linejoin="round" stroke-linecap="round"/></g><g id="face-happy" display="none"><path d="M-70,-6 Q-46,-44 -23,-8" fill="none" stroke="#3f3026" stroke-width="15" stroke-linejoin="round" stroke-linecap="round"/><path d="M25,-11 Q49,-50 72,-13" fill="none" stroke="#3f3026" stroke-width="15" stroke-linejoin="round" stroke-linecap="round"/><path d="M-40,32 Q2,76 46,29" fill="none" stroke="#3f3026" stroke-width="16" stroke-linejoin="round" stroke-linecap="round"/></g><g id="face-delighted" display="none"><path d="M-70,-6 Q-46,-44 -23,-8" fill="none" stroke="#3f3026" stroke-width="15" stroke-linejoin="round" stroke-linecap="round"/><path d="M25,-11 Q49,-50 72,-13" fill="none" stroke="#3f3026" stroke-width="15" stroke-linejoin="round" stroke-linecap="round"/><path d="M-46,26 Q2,34 50,20 Q49,94 2,98 Q-45,92 -46,26 Z" fill="#3f3026"/><path d="M-41,31 Q2,38 45,25 L43,45 Q2,56 -39,49 Z" fill="#fff7e6"/><ellipse cx="4" cy="78" rx="20" ry="13" fill="#e8493c"/></g><g id="face-sleepy" display="none"><path d="M-68,-62 Q-46,-54 -24,-64" fill="none" stroke="#8a5a33" stroke-width="12" stroke-linejoin="round" stroke-linecap="round"/><path d="M-70,-22 Q-46,4 -23,-24" fill="none" stroke="#3f3026" stroke-width="15" stroke-linejoin="round" stroke-linecap="round"/><path d="M25,-27 Q49,-1 72,-29" fill="none" stroke="#3f3026" stroke-width="15" stroke-linejoin="round" stroke-linecap="round"/><ellipse cx="2" cy="48" rx="15" ry="18" fill="#3f3026"/></g><g id="face-surprised" display="none"><path d="M-68,-70 Q-46,-90 -24,-72" fill="none" stroke="#8a5a33" stroke-width="13" stroke-linejoin="round" stroke-linecap="round"/><path d="M27,-76 Q49,-97 71,-78" fill="none" stroke="#8a5a33" stroke-width="13" stroke-linejoin="round" stroke-linecap="round"/><ellipse cx="-46" cy="-14" rx="22" ry="31" fill="#3f3026"/><ellipse cx="48" cy="-18" rx="21" ry="29" fill="#3f3026"/><ellipse cx="-53" cy="-26" rx="7" ry="9" fill="#fff7e6"/><ellipse cx="42" cy="-29" rx="6" ry="8" fill="#fff7e6"/><ellipse cx="3" cy="52" rx="20" ry="27" fill="#3f3026"/></g><g id="face-mischief" display="none"><path d="M-70,-66 L-24,-50" fill="none" stroke="#8a5a33" stroke-width="13" stroke-linejoin="round" stroke-linecap="round"/><path d="M71,-72 L27,-56" fill="none" stroke="#8a5a33" stroke-width="13" stroke-linejoin="round" stroke-linecap="round"/><path d="M-67,-31 L-25,-31 Q-25,3 -46,3 Q-67,3 -67,-31 Z" fill="#3f3026"/><path d="M28,-34 L68,-34 Q68,-2 48,-2 Q28,-2 28,-34 Z" fill="#3f3026"/><path d="M-38,48 Q0,48 46,18" fill="none" stroke="#3f3026" stroke-width="15" stroke-linejoin="round" stroke-linecap="round"/></g></g>
  <text x="1008" y="1050" font-family="Verdana,DejaVu Sans,sans-serif" font-size="19" font-weight="bold" fill="#3f3026">face-neutral</text>
  <path d="M1318.4,838.5 Q1347.6,836.5 1373.5,850.3 Q1396.7,865.9 1412.9,888.7 Q1424.4,914.4 1418.0,941.9 Q1408.5,967.8 1388.9,987.3 Q1366.6,1006.1 1337.7,1010.4 Q1308.8,1009.3 1282.0,998.5 Q1256.8,984.7 1244.8,958.6 Q1235.0,933.2 1237.1,905.9 Q1245.0,878.7 1266.4,860.1 Q1290.5,844.7 1318.4,838.5 Z" fill="#b0e070"/>
  <g clip-path="url(#k27)"><path d="M1171.6,953.2 C1179.0,952.4 1201.4,950.4 1216.3,948.1 C1231.2,945.8 1246.1,943.1 1261.0,939.4 C1275.9,935.8 1290.8,931.0 1305.7,926.3 C1320.6,921.6 1335.4,915.9 1350.3,911.3 C1365.2,906.6 1380.1,901.8 1395.0,898.2 C1409.9,894.6 1424.8,891.9 1439.7,889.6 C1454.6,887.3 1477.0,885.4 1484.4,884.5 L1484.4,1182.0 L1171.6,1182.0 Z" fill="#7ec850"/></g>
  <path d="M1318.4,838.5 Q1347.6,836.5 1373.5,850.3 Q1396.7,865.9 1412.9,888.7 Q1424.4,914.4 1418.0,941.9 Q1408.5,967.8 1388.9,987.3 Q1366.6,1006.1 1337.7,1010.4 Q1308.8,1009.3 1282.0,998.5 Q1256.8,984.7 1244.8,958.6 Q1235.0,933.2 1237.1,905.9 Q1245.0,878.7 1266.4,860.1 Q1290.5,844.7 1318.4,838.5 Z" fill="none" stroke="#000000" stroke-width="13" stroke-linejoin="round" stroke-linecap="round"/>
  <g id="face" transform="translate(1328.0,924.0) rotate(0.0) scale(0.7600)"><g id="face-blush"><ellipse cx="-86" cy="30" rx="31" ry="23" fill="#ff9d52" opacity="0.45"/><ellipse cx="88" cy="26" rx="27" ry="20" fill="#ff9d52" opacity="0.45"/></g><g id="face-neutral" display="none"><ellipse cx="-46" cy="-14" rx="19" ry="26" fill="#3f3026" transform="rotate(-7 -46 -14)"/><ellipse cx="48" cy="-18" rx="18" ry="24" fill="#3f3026" transform="rotate(6 48 -18)"/><path d="M-26,40 Q2,58 32,37" fill="none" stroke="#3f3026" stroke-width="15" stroke-linejoin="round" stroke-linecap="round"/></g><g id="face-happy"><path d="M-70,-6 Q-46,-44 -23,-8" fill="none" stroke="#3f3026" stroke-width="15" stroke-linejoin="round" stroke-linecap="round"/><path d="M25,-11 Q49,-50 72,-13" fill="none" stroke="#3f3026" stroke-width="15" stroke-linejoin="round" stroke-linecap="round"/><path d="M-40,32 Q2,76 46,29" fill="none" stroke="#3f3026" stroke-width="16" stroke-linejoin="round" stroke-linecap="round"/></g><g id="face-delighted" display="none"><path d="M-70,-6 Q-46,-44 -23,-8" fill="none" stroke="#3f3026" stroke-width="15" stroke-linejoin="round" stroke-linecap="round"/><path d="M25,-11 Q49,-50 72,-13" fill="none" stroke="#3f3026" stroke-width="15" stroke-linejoin="round" stroke-linecap="round"/><path d="M-46,26 Q2,34 50,20 Q49,94 2,98 Q-45,92 -46,26 Z" fill="#3f3026"/><path d="M-41,31 Q2,38 45,25 L43,45 Q2,56 -39,49 Z" fill="#fff7e6"/><ellipse cx="4" cy="78" rx="20" ry="13" fill="#e8493c"/></g><g id="face-sleepy" display="none"><path d="M-68,-62 Q-46,-54 -24,-64" fill="none" stroke="#8a5a33" stroke-width="12" stroke-linejoin="round" stroke-linecap="round"/><path d="M-70,-22 Q-46,4 -23,-24" fill="none" stroke="#3f3026" stroke-width="15" stroke-linejoin="round" stroke-linecap="round"/><path d="M25,-27 Q49,-1 72,-29" fill="none" stroke="#3f3026" stroke-width="15" stroke-linejoin="round" stroke-linecap="round"/><ellipse cx="2" cy="48" rx="15" ry="18" fill="#3f3026"/></g><g id="face-surprised" display="none"><path d="M-68,-70 Q-46,-90 -24,-72" fill="none" stroke="#8a5a33" stroke-width="13" stroke-linejoin="round" stroke-linecap="round"/><path d="M27,-76 Q49,-97 71,-78" fill="none" stroke="#8a5a33" stroke-width="13" stroke-linejoin="round" stroke-linecap="round"/><ellipse cx="-46" cy="-14" rx="22" ry="31" fill="#3f3026"/><ellipse cx="48" cy="-18" rx="21" ry="29" fill="#3f3026"/><ellipse cx="-53" cy="-26" rx="7" ry="9" fill="#fff7e6"/><ellipse cx="42" cy="-29" rx="6" ry="8" fill="#fff7e6"/><ellipse cx="3" cy="52" rx="20" ry="27" fill="#3f3026"/></g><g id="face-mischief" display="none"><path d="M-70,-66 L-24,-50" fill="none" stroke="#8a5a33" stroke-width="13" stroke-linejoin="round" stroke-linecap="round"/><path d="M71,-72 L27,-56" fill="none" stroke="#8a5a33" stroke-width="13" stroke-linejoin="round" stroke-linecap="round"/><path d="M-67,-31 L-25,-31 Q-25,3 -46,3 Q-67,3 -67,-31 Z" fill="#3f3026"/><path d="M28,-34 L68,-34 Q68,-2 48,-2 Q28,-2 28,-34 Z" fill="#3f3026"/><path d="M-38,48 Q0,48 46,18" fill="none" stroke="#3f3026" stroke-width="15" stroke-linejoin="round" stroke-linecap="round"/></g></g>
  <text x="1262" y="1050" font-family="Verdana,DejaVu Sans,sans-serif" font-size="19" font-weight="bold" fill="#3f3026">face-happy</text>
  <path d="M1572.4,838.5 Q1601.6,836.5 1627.5,850.3 Q1650.7,865.9 1666.9,888.7 Q1678.4,914.4 1672.0,941.9 Q1662.5,967.8 1642.9,987.3 Q1620.6,1006.1 1591.7,1010.4 Q1562.8,1009.3 1536.0,998.5 Q1510.8,984.7 1498.8,958.6 Q1489.0,933.2 1491.1,905.9 Q1499.0,878.7 1520.4,860.1 Q1544.5,844.7 1572.4,838.5 Z" fill="#b0e070"/>
  <g clip-path="url(#k28)"><path d="M1425.6,953.2 C1433.0,952.4 1455.4,950.4 1470.3,948.1 C1485.2,945.8 1500.1,943.1 1515.0,939.4 C1529.9,935.8 1544.8,931.0 1559.7,926.3 C1574.6,921.6 1589.4,915.9 1604.3,911.3 C1619.2,906.6 1634.1,901.8 1649.0,898.2 C1663.9,894.6 1678.8,891.9 1693.7,889.6 C1708.6,887.3 1731.0,885.4 1738.4,884.5 L1738.4,1182.0 L1425.6,1182.0 Z" fill="#7ec850"/></g>
  <path d="M1572.4,838.5 Q1601.6,836.5 1627.5,850.3 Q1650.7,865.9 1666.9,888.7 Q1678.4,914.4 1672.0,941.9 Q1662.5,967.8 1642.9,987.3 Q1620.6,1006.1 1591.7,1010.4 Q1562.8,1009.3 1536.0,998.5 Q1510.8,984.7 1498.8,958.6 Q1489.0,933.2 1491.1,905.9 Q1499.0,878.7 1520.4,860.1 Q1544.5,844.7 1572.4,838.5 Z" fill="none" stroke="#000000" stroke-width="13" stroke-linejoin="round" stroke-linecap="round"/>
  <g id="face" transform="translate(1582.0,924.0) rotate(0.0) scale(0.7600)"><g id="face-blush"><ellipse cx="-86" cy="30" rx="31" ry="23" fill="#ff9d52" opacity="0.45"/><ellipse cx="88" cy="26" rx="27" ry="20" fill="#ff9d52" opacity="0.45"/></g><g id="face-neutral" display="none"><ellipse cx="-46" cy="-14" rx="19" ry="26" fill="#3f3026" transform="rotate(-7 -46 -14)"/><ellipse cx="48" cy="-18" rx="18" ry="24" fill="#3f3026" transform="rotate(6 48 -18)"/><path d="M-26,40 Q2,58 32,37" fill="none" stroke="#3f3026" stroke-width="15" stroke-linejoin="round" stroke-linecap="round"/></g><g id="face-happy" display="none"><path d="M-70,-6 Q-46,-44 -23,-8" fill="none" stroke="#3f3026" stroke-width="15" stroke-linejoin="round" stroke-linecap="round"/><path d="M25,-11 Q49,-50 72,-13" fill="none" stroke="#3f3026" stroke-width="15" stroke-linejoin="round" stroke-linecap="round"/><path d="M-40,32 Q2,76 46,29" fill="none" stroke="#3f3026" stroke-width="16" stroke-linejoin="round" stroke-linecap="round"/></g><g id="face-delighted"><path d="M-70,-6 Q-46,-44 -23,-8" fill="none" stroke="#3f3026" stroke-width="15" stroke-linejoin="round" stroke-linecap="round"/><path d="M25,-11 Q49,-50 72,-13" fill="none" stroke="#3f3026" stroke-width="15" stroke-linejoin="round" stroke-linecap="round"/><path d="M-46,26 Q2,34 50,20 Q49,94 2,98 Q-45,92 -46,26 Z" fill="#3f3026"/><path d="M-41,31 Q2,38 45,25 L43,45 Q2,56 -39,49 Z" fill="#fff7e6"/><ellipse cx="4" cy="78" rx="20" ry="13" fill="#e8493c"/></g><g id="face-sleepy" display="none"><path d="M-68,-62 Q-46,-54 -24,-64" fill="none" stroke="#8a5a33" stroke-width="12" stroke-linejoin="round" stroke-linecap="round"/><path d="M-70,-22 Q-46,4 -23,-24" fill="none" stroke="#3f3026" stroke-width="15" stroke-linejoin="round" stroke-linecap="round"/><path d="M25,-27 Q49,-1 72,-29" fill="none" stroke="#3f3026" stroke-width="15" stroke-linejoin="round" stroke-linecap="round"/><ellipse cx="2" cy="48" rx="15" ry="18" fill="#3f3026"/></g><g id="face-surprised" display="none"><path d="M-68,-70 Q-46,-90 -24,-72" fill="none" stroke="#8a5a33" stroke-width="13" stroke-linejoin="round" stroke-linecap="round"/><path d="M27,-76 Q49,-97 71,-78" fill="none" stroke="#8a5a33" stroke-width="13" stroke-linejoin="round" stroke-linecap="round"/><ellipse cx="-46" cy="-14" rx="22" ry="31" fill="#3f3026"/><ellipse cx="48" cy="-18" rx="21" ry="29" fill="#3f3026"/><ellipse cx="-53" cy="-26" rx="7" ry="9" fill="#fff7e6"/><ellipse cx="42" cy="-29" rx="6" ry="8" fill="#fff7e6"/><ellipse cx="3" cy="52" rx="20" ry="27" fill="#3f3026"/></g><g id="face-mischief" display="none"><path d="M-70,-66 L-24,-50" fill="none" stroke="#8a5a33" stroke-width="13" stroke-linejoin="round" stroke-linecap="round"/><path d="M71,-72 L27,-56" fill="none" stroke="#8a5a33" stroke-width="13" stroke-linejoin="round" stroke-linecap="round"/><path d="M-67,-31 L-25,-31 Q-25,3 -46,3 Q-67,3 -67,-31 Z" fill="#3f3026"/><path d="M28,-34 L68,-34 Q68,-2 48,-2 Q28,-2 28,-34 Z" fill="#3f3026"/><path d="M-38,48 Q0,48 46,18" fill="none" stroke="#3f3026" stroke-width="15" stroke-linejoin="round" stroke-linecap="round"/></g></g>
  <text x="1516" y="1050" font-family="Verdana,DejaVu Sans,sans-serif" font-size="19" font-weight="bold" fill="#3f3026">face-delighted</text>
  <path d="M1064.4,1038.5 Q1093.6,1036.5 1119.5,1050.3 Q1142.7,1065.9 1158.9,1088.7 Q1170.4,1114.4 1164.0,1141.9 Q1154.5,1167.8 1134.9,1187.3 Q1112.6,1206.1 1083.7,1210.4 Q1054.8,1209.3 1028.0,1198.5 Q1002.8,1184.7 990.8,1158.6 Q981.0,1133.2 983.1,1105.9 Q991.0,1078.7 1012.4,1060.1 Q1036.5,1044.7 1064.4,1038.5 Z" fill="#b0e070"/>
  <g clip-path="url(#k29)"><path d="M917.6,1153.2 C925.0,1152.4 947.4,1150.4 962.3,1148.1 C977.2,1145.8 992.1,1143.1 1007.0,1139.4 C1021.9,1135.8 1036.8,1131.0 1051.7,1126.3 C1066.6,1121.6 1081.4,1115.9 1096.3,1111.3 C1111.2,1106.6 1126.1,1101.8 1141.0,1098.2 C1155.9,1094.6 1170.8,1091.9 1185.7,1089.6 C1200.6,1087.3 1223.0,1085.4 1230.4,1084.5 L1230.4,1382.0 L917.6,1382.0 Z" fill="#7ec850"/></g>
  <path d="M1064.4,1038.5 Q1093.6,1036.5 1119.5,1050.3 Q1142.7,1065.9 1158.9,1088.7 Q1170.4,1114.4 1164.0,1141.9 Q1154.5,1167.8 1134.9,1187.3 Q1112.6,1206.1 1083.7,1210.4 Q1054.8,1209.3 1028.0,1198.5 Q1002.8,1184.7 990.8,1158.6 Q981.0,1133.2 983.1,1105.9 Q991.0,1078.7 1012.4,1060.1 Q1036.5,1044.7 1064.4,1038.5 Z" fill="none" stroke="#000000" stroke-width="13" stroke-linejoin="round" stroke-linecap="round"/>
  <g id="face" transform="translate(1074.0,1124.0) rotate(0.0) scale(0.7600)"><g id="face-blush"><ellipse cx="-86" cy="30" rx="31" ry="23" fill="#ff9d52" opacity="0.45"/><ellipse cx="88" cy="26" rx="27" ry="20" fill="#ff9d52" opacity="0.45"/></g><g id="face-neutral" display="none"><ellipse cx="-46" cy="-14" rx="19" ry="26" fill="#3f3026" transform="rotate(-7 -46 -14)"/><ellipse cx="48" cy="-18" rx="18" ry="24" fill="#3f3026" transform="rotate(6 48 -18)"/><path d="M-26,40 Q2,58 32,37" fill="none" stroke="#3f3026" stroke-width="15" stroke-linejoin="round" stroke-linecap="round"/></g><g id="face-happy" display="none"><path d="M-70,-6 Q-46,-44 -23,-8" fill="none" stroke="#3f3026" stroke-width="15" stroke-linejoin="round" stroke-linecap="round"/><path d="M25,-11 Q49,-50 72,-13" fill="none" stroke="#3f3026" stroke-width="15" stroke-linejoin="round" stroke-linecap="round"/><path d="M-40,32 Q2,76 46,29" fill="none" stroke="#3f3026" stroke-width="16" stroke-linejoin="round" stroke-linecap="round"/></g><g id="face-delighted" display="none"><path d="M-70,-6 Q-46,-44 -23,-8" fill="none" stroke="#3f3026" stroke-width="15" stroke-linejoin="round" stroke-linecap="round"/><path d="M25,-11 Q49,-50 72,-13" fill="none" stroke="#3f3026" stroke-width="15" stroke-linejoin="round" stroke-linecap="round"/><path d="M-46,26 Q2,34 50,20 Q49,94 2,98 Q-45,92 -46,26 Z" fill="#3f3026"/><path d="M-41,31 Q2,38 45,25 L43,45 Q2,56 -39,49 Z" fill="#fff7e6"/><ellipse cx="4" cy="78" rx="20" ry="13" fill="#e8493c"/></g><g id="face-sleepy"><path d="M-68,-62 Q-46,-54 -24,-64" fill="none" stroke="#8a5a33" stroke-width="12" stroke-linejoin="round" stroke-linecap="round"/><path d="M-70,-22 Q-46,4 -23,-24" fill="none" stroke="#3f3026" stroke-width="15" stroke-linejoin="round" stroke-linecap="round"/><path d="M25,-27 Q49,-1 72,-29" fill="none" stroke="#3f3026" stroke-width="15" stroke-linejoin="round" stroke-linecap="round"/><ellipse cx="2" cy="48" rx="15" ry="18" fill="#3f3026"/></g><g id="face-surprised" display="none"><path d="M-68,-70 Q-46,-90 -24,-72" fill="none" stroke="#8a5a33" stroke-width="13" stroke-linejoin="round" stroke-linecap="round"/><path d="M27,-76 Q49,-97 71,-78" fill="none" stroke="#8a5a33" stroke-width="13" stroke-linejoin="round" stroke-linecap="round"/><ellipse cx="-46" cy="-14" rx="22" ry="31" fill="#3f3026"/><ellipse cx="48" cy="-18" rx="21" ry="29" fill="#3f3026"/><ellipse cx="-53" cy="-26" rx="7" ry="9" fill="#fff7e6"/><ellipse cx="42" cy="-29" rx="6" ry="8" fill="#fff7e6"/><ellipse cx="3" cy="52" rx="20" ry="27" fill="#3f3026"/></g><g id="face-mischief" display="none"><path d="M-70,-66 L-24,-50" fill="none" stroke="#8a5a33" stroke-width="13" stroke-linejoin="round" stroke-linecap="round"/><path d="M71,-72 L27,-56" fill="none" stroke="#8a5a33" stroke-width="13" stroke-linejoin="round" stroke-linecap="round"/><path d="M-67,-31 L-25,-31 Q-25,3 -46,3 Q-67,3 -67,-31 Z" fill="#3f3026"/><path d="M28,-34 L68,-34 Q68,-2 48,-2 Q28,-2 28,-34 Z" fill="#3f3026"/><path d="M-38,48 Q0,48 46,18" fill="none" stroke="#3f3026" stroke-width="15" stroke-linejoin="round" stroke-linecap="round"/></g></g>
  <text x="1008" y="1250" font-family="Verdana,DejaVu Sans,sans-serif" font-size="19" font-weight="bold" fill="#3f3026">face-sleepy</text>
  <path d="M1318.4,1038.5 Q1347.6,1036.5 1373.5,1050.3 Q1396.7,1065.9 1412.9,1088.7 Q1424.4,1114.4 1418.0,1141.9 Q1408.5,1167.8 1388.9,1187.3 Q1366.6,1206.1 1337.7,1210.4 Q1308.8,1209.3 1282.0,1198.5 Q1256.8,1184.7 1244.8,1158.6 Q1235.0,1133.2 1237.1,1105.9 Q1245.0,1078.7 1266.4,1060.1 Q1290.5,1044.7 1318.4,1038.5 Z" fill="#b0e070"/>
  <g clip-path="url(#k30)"><path d="M1171.6,1153.2 C1179.0,1152.4 1201.4,1150.4 1216.3,1148.1 C1231.2,1145.8 1246.1,1143.1 1261.0,1139.4 C1275.9,1135.8 1290.8,1131.0 1305.7,1126.3 C1320.6,1121.6 1335.4,1115.9 1350.3,1111.3 C1365.2,1106.6 1380.1,1101.8 1395.0,1098.2 C1409.9,1094.6 1424.8,1091.9 1439.7,1089.6 C1454.6,1087.3 1477.0,1085.4 1484.4,1084.5 L1484.4,1382.0 L1171.6,1382.0 Z" fill="#7ec850"/></g>
  <path d="M1318.4,1038.5 Q1347.6,1036.5 1373.5,1050.3 Q1396.7,1065.9 1412.9,1088.7 Q1424.4,1114.4 1418.0,1141.9 Q1408.5,1167.8 1388.9,1187.3 Q1366.6,1206.1 1337.7,1210.4 Q1308.8,1209.3 1282.0,1198.5 Q1256.8,1184.7 1244.8,1158.6 Q1235.0,1133.2 1237.1,1105.9 Q1245.0,1078.7 1266.4,1060.1 Q1290.5,1044.7 1318.4,1038.5 Z" fill="none" stroke="#000000" stroke-width="13" stroke-linejoin="round" stroke-linecap="round"/>
  <g id="face" transform="translate(1328.0,1124.0) rotate(0.0) scale(0.7600)"><g id="face-blush"><ellipse cx="-86" cy="30" rx="31" ry="23" fill="#ff9d52" opacity="0.45"/><ellipse cx="88" cy="26" rx="27" ry="20" fill="#ff9d52" opacity="0.45"/></g><g id="face-neutral" display="none"><ellipse cx="-46" cy="-14" rx="19" ry="26" fill="#3f3026" transform="rotate(-7 -46 -14)"/><ellipse cx="48" cy="-18" rx="18" ry="24" fill="#3f3026" transform="rotate(6 48 -18)"/><path d="M-26,40 Q2,58 32,37" fill="none" stroke="#3f3026" stroke-width="15" stroke-linejoin="round" stroke-linecap="round"/></g><g id="face-happy" display="none"><path d="M-70,-6 Q-46,-44 -23,-8" fill="none" stroke="#3f3026" stroke-width="15" stroke-linejoin="round" stroke-linecap="round"/><path d="M25,-11 Q49,-50 72,-13" fill="none" stroke="#3f3026" stroke-width="15" stroke-linejoin="round" stroke-linecap="round"/><path d="M-40,32 Q2,76 46,29" fill="none" stroke="#3f3026" stroke-width="16" stroke-linejoin="round" stroke-linecap="round"/></g><g id="face-delighted" display="none"><path d="M-70,-6 Q-46,-44 -23,-8" fill="none" stroke="#3f3026" stroke-width="15" stroke-linejoin="round" stroke-linecap="round"/><path d="M25,-11 Q49,-50 72,-13" fill="none" stroke="#3f3026" stroke-width="15" stroke-linejoin="round" stroke-linecap="round"/><path d="M-46,26 Q2,34 50,20 Q49,94 2,98 Q-45,92 -46,26 Z" fill="#3f3026"/><path d="M-41,31 Q2,38 45,25 L43,45 Q2,56 -39,49 Z" fill="#fff7e6"/><ellipse cx="4" cy="78" rx="20" ry="13" fill="#e8493c"/></g><g id="face-sleepy" display="none"><path d="M-68,-62 Q-46,-54 -24,-64" fill="none" stroke="#8a5a33" stroke-width="12" stroke-linejoin="round" stroke-linecap="round"/><path d="M-70,-22 Q-46,4 -23,-24" fill="none" stroke="#3f3026" stroke-width="15" stroke-linejoin="round" stroke-linecap="round"/><path d="M25,-27 Q49,-1 72,-29" fill="none" stroke="#3f3026" stroke-width="15" stroke-linejoin="round" stroke-linecap="round"/><ellipse cx="2" cy="48" rx="15" ry="18" fill="#3f3026"/></g><g id="face-surprised"><path d="M-68,-70 Q-46,-90 -24,-72" fill="none" stroke="#8a5a33" stroke-width="13" stroke-linejoin="round" stroke-linecap="round"/><path d="M27,-76 Q49,-97 71,-78" fill="none" stroke="#8a5a33" stroke-width="13" stroke-linejoin="round" stroke-linecap="round"/><ellipse cx="-46" cy="-14" rx="22" ry="31" fill="#3f3026"/><ellipse cx="48" cy="-18" rx="21" ry="29" fill="#3f3026"/><ellipse cx="-53" cy="-26" rx="7" ry="9" fill="#fff7e6"/><ellipse cx="42" cy="-29" rx="6" ry="8" fill="#fff7e6"/><ellipse cx="3" cy="52" rx="20" ry="27" fill="#3f3026"/></g><g id="face-mischief" display="none"><path d="M-70,-66 L-24,-50" fill="none" stroke="#8a5a33" stroke-width="13" stroke-linejoin="round" stroke-linecap="round"/><path d="M71,-72 L27,-56" fill="none" stroke="#8a5a33" stroke-width="13" stroke-linejoin="round" stroke-linecap="round"/><path d="M-67,-31 L-25,-31 Q-25,3 -46,3 Q-67,3 -67,-31 Z" fill="#3f3026"/><path d="M28,-34 L68,-34 Q68,-2 48,-2 Q28,-2 28,-34 Z" fill="#3f3026"/><path d="M-38,48 Q0,48 46,18" fill="none" stroke="#3f3026" stroke-width="15" stroke-linejoin="round" stroke-linecap="round"/></g></g>
  <text x="1262" y="1250" font-family="Verdana,DejaVu Sans,sans-serif" font-size="19" font-weight="bold" fill="#3f3026">face-surprised</text>
  <path d="M1572.4,1038.5 Q1601.6,1036.5 1627.5,1050.3 Q1650.7,1065.9 1666.9,1088.7 Q1678.4,1114.4 1672.0,1141.9 Q1662.5,1167.8 1642.9,1187.3 Q1620.6,1206.1 1591.7,1210.4 Q1562.8,1209.3 1536.0,1198.5 Q1510.8,1184.7 1498.8,1158.6 Q1489.0,1133.2 1491.1,1105.9 Q1499.0,1078.7 1520.4,1060.1 Q1544.5,1044.7 1572.4,1038.5 Z" fill="#b0e070"/>
  <g clip-path="url(#k31)"><path d="M1425.6,1153.2 C1433.0,1152.4 1455.4,1150.4 1470.3,1148.1 C1485.2,1145.8 1500.1,1143.1 1515.0,1139.4 C1529.9,1135.8 1544.8,1131.0 1559.7,1126.3 C1574.6,1121.6 1589.4,1115.9 1604.3,1111.3 C1619.2,1106.6 1634.1,1101.8 1649.0,1098.2 C1663.9,1094.6 1678.8,1091.9 1693.7,1089.6 C1708.6,1087.3 1731.0,1085.4 1738.4,1084.5 L1738.4,1382.0 L1425.6,1382.0 Z" fill="#7ec850"/></g>
  <path d="M1572.4,1038.5 Q1601.6,1036.5 1627.5,1050.3 Q1650.7,1065.9 1666.9,1088.7 Q1678.4,1114.4 1672.0,1141.9 Q1662.5,1167.8 1642.9,1187.3 Q1620.6,1206.1 1591.7,1210.4 Q1562.8,1209.3 1536.0,1198.5 Q1510.8,1184.7 1498.8,1158.6 Q1489.0,1133.2 1491.1,1105.9 Q1499.0,1078.7 1520.4,1060.1 Q1544.5,1044.7 1572.4,1038.5 Z" fill="none" stroke="#000000" stroke-width="13" stroke-linejoin="round" stroke-linecap="round"/>
  <g id="face" transform="translate(1582.0,1124.0) rotate(0.0) scale(0.7600)"><g id="face-blush"><ellipse cx="-86" cy="30" rx="31" ry="23" fill="#ff9d52" opacity="0.45"/><ellipse cx="88" cy="26" rx="27" ry="20" fill="#ff9d52" opacity="0.45"/></g><g id="face-neutral" display="none"><ellipse cx="-46" cy="-14" rx="19" ry="26" fill="#3f3026" transform="rotate(-7 -46 -14)"/><ellipse cx="48" cy="-18" rx="18" ry="24" fill="#3f3026" transform="rotate(6 48 -18)"/><path d="M-26,40 Q2,58 32,37" fill="none" stroke="#3f3026" stroke-width="15" stroke-linejoin="round" stroke-linecap="round"/></g><g id="face-happy" display="none"><path d="M-70,-6 Q-46,-44 -23,-8" fill="none" stroke="#3f3026" stroke-width="15" stroke-linejoin="round" stroke-linecap="round"/><path d="M25,-11 Q49,-50 72,-13" fill="none" stroke="#3f3026" stroke-width="15" stroke-linejoin="round" stroke-linecap="round"/><path d="M-40,32 Q2,76 46,29" fill="none" stroke="#3f3026" stroke-width="16" stroke-linejoin="round" stroke-linecap="round"/></g><g id="face-delighted" display="none"><path d="M-70,-6 Q-46,-44 -23,-8" fill="none" stroke="#3f3026" stroke-width="15" stroke-linejoin="round" stroke-linecap="round"/><path d="M25,-11 Q49,-50 72,-13" fill="none" stroke="#3f3026" stroke-width="15" stroke-linejoin="round" stroke-linecap="round"/><path d="M-46,26 Q2,34 50,20 Q49,94 2,98 Q-45,92 -46,26 Z" fill="#3f3026"/><path d="M-41,31 Q2,38 45,25 L43,45 Q2,56 -39,49 Z" fill="#fff7e6"/><ellipse cx="4" cy="78" rx="20" ry="13" fill="#e8493c"/></g><g id="face-sleepy" display="none"><path d="M-68,-62 Q-46,-54 -24,-64" fill="none" stroke="#8a5a33" stroke-width="12" stroke-linejoin="round" stroke-linecap="round"/><path d="M-70,-22 Q-46,4 -23,-24" fill="none" stroke="#3f3026" stroke-width="15" stroke-linejoin="round" stroke-linecap="round"/><path d="M25,-27 Q49,-1 72,-29" fill="none" stroke="#3f3026" stroke-width="15" stroke-linejoin="round" stroke-linecap="round"/><ellipse cx="2" cy="48" rx="15" ry="18" fill="#3f3026"/></g><g id="face-surprised" display="none"><path d="M-68,-70 Q-46,-90 -24,-72" fill="none" stroke="#8a5a33" stroke-width="13" stroke-linejoin="round" stroke-linecap="round"/><path d="M27,-76 Q49,-97 71,-78" fill="none" stroke="#8a5a33" stroke-width="13" stroke-linejoin="round" stroke-linecap="round"/><ellipse cx="-46" cy="-14" rx="22" ry="31" fill="#3f3026"/><ellipse cx="48" cy="-18" rx="21" ry="29" fill="#3f3026"/><ellipse cx="-53" cy="-26" rx="7" ry="9" fill="#fff7e6"/><ellipse cx="42" cy="-29" rx="6" ry="8" fill="#fff7e6"/><ellipse cx="3" cy="52" rx="20" ry="27" fill="#3f3026"/></g><g id="face-mischief"><path d="M-70,-66 L-24,-50" fill="none" stroke="#8a5a33" stroke-width="13" stroke-linejoin="round" stroke-linecap="round"/><path d="M71,-72 L27,-56" fill="none" stroke="#8a5a33" stroke-width="13" stroke-linejoin="round" stroke-linecap="round"/><path d="M-67,-31 L-25,-31 Q-25,3 -46,3 Q-67,3 -67,-31 Z" fill="#3f3026"/><path d="M28,-34 L68,-34 Q68,-2 48,-2 Q28,-2 28,-34 Z" fill="#3f3026"/><path d="M-38,48 Q0,48 46,18" fill="none" stroke="#3f3026" stroke-width="15" stroke-linejoin="round" stroke-linecap="round"/></g></g>
  <text x="1516" y="1250" font-family="Verdana,DejaVu Sans,sans-serif" font-size="19" font-weight="bold" fill="#3f3026">face-mischief</text>
</svg>
