<svg xmlns="http://www.w3.org/2000/svg" width="768" height="768" viewBox="0 0 768 768">
  <defs><clipPath id="k1"><path d="M369.3,246.9 C375.4,277.8 366.5,315.6 349.4,346.1 C332.3,376.5 300.8,416.9 266.9,429.5 C232.9,442.2 182.0,431.4 145.7,421.8 C109.5,412.3 70.1,397.0 49.5,372.3 C28.8,347.7 16.4,306.3 21.7,274.0 C27.1,241.7 52.3,202.3 81.5,178.5 C110.8,154.7 158.7,134.3 197.2,131.4 C235.8,128.5 284.2,141.8 312.9,161.1 C341.5,180.4 363.2,216.1 369.3,246.9 Z"/></clipPath><clipPath id="k2"><path d="M746.3,313.9 C740.4,345.5 712.5,382.7 682.7,400.8 C652.9,418.9 605.8,424.7 567.4,422.4 C529.0,420.0 481.2,408.3 452.5,386.4 C423.8,364.6 401.6,324.1 395.4,291.5 C389.1,258.9 396.3,217.7 415.1,190.8 C433.9,163.8 472.3,138.7 508.0,129.7 C543.7,120.6 594.3,123.2 629.3,136.7 C664.3,150.3 698.7,181.5 718.2,211.0 C737.7,240.5 752.2,282.3 746.3,313.9 Z"/></clipPath><clipPath id="k3"><path d="M382.6,590.0 C377.7,615.6 359.6,649.6 336.0,662.7 C312.3,675.9 270.1,674.5 240.7,668.9 C211.3,663.4 180.0,648.1 159.5,629.2 C138.9,610.4 122.9,582.2 117.5,555.7 C112.0,529.2 110.8,489.9 126.9,470.2 C143.0,450.5 183.8,442.3 213.9,437.5 C243.9,432.8 281.9,429.8 307.2,441.8 C332.5,453.8 353.2,484.8 365.8,509.5 C378.4,534.2 387.6,564.5 382.6,590.0 Z"/></clipPath><clipPath id="k4"><path d="M662.7,532.3 C665.5,556.3 654.0,585.6 637.8,607.3 C621.5,628.9 593.3,652.8 565.3,662.2 C537.3,671.6 498.7,670.0 469.7,663.8 C440.7,657.5 407.6,644.0 391.1,624.7 C374.6,605.4 364.6,572.7 370.5,547.8 C376.4,522.9 400.8,491.0 426.3,475.2 C451.8,459.4 491.1,455.1 523.5,453.0 C556.0,450.9 597.9,449.5 621.1,462.7 C644.3,476.0 660.0,508.2 662.7,532.3 Z"/></clipPath><clipPath id="k5"><path d="M338.0,298.4 C338.2,309.3 338.0,341.7 338.8,363.5 C339.7,385.3 341.1,407.3 343.1,429.2 C345.1,451.1 347.8,473.0 350.7,494.7 C353.6,516.5 357.3,538.1 360.7,559.6 C364.1,581.1 369.3,613.1 371.1,623.8 A21.0,21.0 0 0 0 412.9,620.2 C412.9,609.5 412.3,577.2 412.5,555.8 C412.8,534.4 413.6,513.2 414.6,492.0 C415.7,470.8 417.4,449.8 419.1,428.7 C420.8,407.6 423.0,386.7 424.8,365.5 C426.6,344.3 429.1,312.2 430.0,301.6 A46.0,46.0 0 0 0 338.0,298.4 Z"/></clipPath><clipPath id="k6"><path d="M501.2,213.7 C503.5,238.8 498.7,272.1 483.6,292.1 C468.5,312.0 436.6,327.8 410.8,333.4 C385.0,338.9 351.8,336.0 328.8,325.1 C305.9,314.3 283.7,290.9 273.1,268.4 C262.5,246.0 258.9,214.8 265.3,190.5 C271.8,166.3 290.3,137.7 312.0,123.0 C333.7,108.4 369.3,99.7 395.6,102.8 C421.9,105.8 452.1,122.9 469.7,141.4 C487.3,159.9 498.9,188.6 501.2,213.7 Z"/></clipPath></defs>
  <path d="M369.3,246.9 C375.4,277.8 366.5,315.6 349.4,346.1 C332.3,376.5 300.8,416.9 266.9,429.5 C232.9,442.2 182.0,431.4 145.7,421.8 C109.5,412.3 70.1,397.0 49.5,372.3 C28.8,347.7 16.4,306.3 21.7,274.0 C27.1,241.7 52.3,202.3 81.5,178.5 C110.8,154.7 158.7,134.3 197.2,131.4 C235.8,128.5 284.2,141.8 312.9,161.1 C341.5,180.4 363.2,216.1 369.3,246.9 Z" fill="#f2a7c4"/>
  <g clip-path="url(#k1)"><path d="M-102.6,364.0 C-88.2,361.8 -45.0,356.6 -16.1,350.9 C12.7,345.2 41.5,336.8 70.3,329.7 C99.1,322.5 128.0,314.0 156.8,308.1 C185.6,302.1 214.4,297.1 243.2,294.1 C272.0,291.0 300.9,290.5 329.7,290.0 C358.5,289.4 387.3,291.0 416.1,290.5 C445.0,290.1 488.2,287.6 502.6,287.1 L502.6,730.0 L-102.6,730.0 Z" fill="#d489a8"/></g>
  <path d="M369.3,246.9 C375.4,277.8 366.5,315.6 349.4,346.1 C332.3,376.5 300.8,416.9 266.9,429.5 C232.9,442.2 182.0,431.4 145.7,421.8 C109.5,412.3 70.1,397.0 49.5,372.3 C28.8,347.7 16.4,306.3 21.7,274.0 C27.1,241.7 52.3,202.3 81.5,178.5 C110.8,154.7 158.7,134.3 197.2,131.4 C235.8,128.5 284.2,141.8 312.9,161.1 C341.5,180.4 363.2,216.1 369.3,246.9 Z" fill="none" stroke="#000000" stroke-width="10" stroke-linejoin="round" stroke-linecap="round"/>
  <path d="M746.3,313.9 C740.4,345.5 712.5,382.7 682.7,400.8 C652.9,418.9 605.8,424.7 567.4,422.4 C529.0,420.0 481.2,408.3 452.5,386.4 C423.8,364.6 401.6,324.1 395.4,291.5 C389.1,258.9 396.3,217.7 415.1,190.8 C433.9,163.8 472.3,138.7 508.0,129.7 C543.7,120.6 594.3,123.2 629.3,136.7 C664.3,150.3 698.7,181.5 718.2,211.0 C737.7,240.5 752.2,282.3 746.3,313.9 Z" fill="#f2a7c4"/>
  <g clip-path="url(#k2)"><path d="M279.0,344.9 C292.8,341.2 334.0,329.5 361.6,322.9 C389.1,316.3 416.6,309.6 444.1,305.3 C471.7,301.0 499.2,298.7 526.7,297.3 C554.2,295.8 581.8,297.0 609.3,296.8 C636.8,296.6 664.3,297.7 691.9,296.2 C719.4,294.7 746.9,292.1 774.4,287.7 C802.0,283.4 843.2,272.8 857.0,269.8 L857.0,708.0 L279.0,708.0 Z" fill="#d489a8"/></g>
  <path d="M746.3,313.9 C740.4,345.5 712.5,382.7 682.7,400.8 C652.9,418.9 605.8,424.7 567.4,422.4 C529.0,420.0 481.2,408.3 452.5,386.4 C423.8,364.6 401.6,324.1 395.4,291.5 C389.1,258.9 396.3,217.7 415.1,190.8 C433.9,163.8 472.3,138.7 508.0,129.7 C543.7,120.6 594.3,123.2 629.3,136.7 C664.3,150.3 698.7,181.5 718.2,211.0 C737.7,240.5 752.2,282.3 746.3,313.9 Z" fill="none" stroke="#000000" stroke-width="10" stroke-linejoin="round" stroke-linecap="round"/>
  <path d="M382.6,590.0 C377.7,615.6 359.6,649.6 336.0,662.7 C312.3,675.9 270.1,674.5 240.7,668.9 C211.3,663.4 180.0,648.1 159.5,629.2 C138.9,610.4 122.9,582.2 117.5,555.7 C112.0,529.2 110.8,489.9 126.9,470.2 C143.0,450.5 183.8,442.3 213.9,437.5 C243.9,432.8 281.9,429.8 307.2,441.8 C332.5,453.8 353.2,484.8 365.8,509.5 C378.4,534.2 387.6,564.5 382.6,590.0 Z" fill="#f2a7c4"/>
  <g clip-path="url(#k3)"><path d="M12.0,596.7 C23.3,594.9 57.3,588.3 80.0,586.1 C102.7,583.9 125.3,583.8 148.0,583.4 C170.7,583.1 193.3,584.4 216.0,583.9 C238.7,583.4 261.3,582.9 284.0,580.3 C306.7,577.7 329.3,573.4 352.0,568.4 C374.7,563.5 397.3,556.4 420.0,550.5 C442.7,544.6 476.7,536.0 488.0,533.2 L488.0,918.0 L12.0,918.0 Z" fill="#d489a8"/></g>
  <path d="M382.6,590.0 C377.7,615.6 359.6,649.6 336.0,662.7 C312.3,675.9 270.1,674.5 240.7,668.9 C211.3,663.4 180.0,648.1 159.5,629.2 C138.9,610.4 122.9,582.2 117.5,555.7 C112.0,529.2 110.8,489.9 126.9,470.2 C143.0,450.5 183.8,442.3 213.9,437.5 C243.9,432.8 281.9,429.8 307.2,441.8 C332.5,453.8 353.2,484.8 365.8,509.5 C378.4,534.2 387.6,564.5 382.6,590.0 Z" fill="none" stroke="#000000" stroke-width="10" stroke-linejoin="round" stroke-linecap="round"/>
  <path d="M662.7,532.3 C665.5,556.3 654.0,585.6 637.8,607.3 C621.5,628.9 593.3,652.8 565.3,662.2 C537.3,671.6 498.7,670.0 469.7,663.8 C440.7,657.5 407.6,644.0 391.1,624.7 C374.6,605.4 364.6,572.7 370.5,547.8 C376.4,522.9 400.8,491.0 426.3,475.2 C451.8,459.4 491.1,455.1 523.5,453.0 C556.0,450.9 597.9,449.5 621.1,462.7 C644.3,476.0 660.0,508.2 662.7,532.3 Z" fill="#f2a7c4"/>
  <g clip-path="url(#k4)"><path d="M268.4,606.3 C280.4,606.4 316.3,607.3 340.3,606.8 C364.2,606.3 388.2,605.8 412.2,603.4 C436.1,600.9 460.1,596.9 484.1,592.3 C508.0,587.6 532.0,581.0 555.9,575.5 C579.9,570.0 603.9,563.6 627.8,559.3 C651.8,555.0 675.8,551.6 699.7,549.6 C723.7,547.5 759.6,547.6 771.6,547.2 L771.6,902.0 L268.4,902.0 Z" fill="#d489a8"/></g>
  <path d="M662.7,532.3 C665.5,556.3 654.0,585.6 637.8,607.3 C621.5,628.9 593.3,652.8 565.3,662.2 C537.3,671.6 498.7,670.0 469.7,663.8 C440.7,657.5 407.6,644.0 391.1,624.7 C374.6,605.4 364.6,572.7 370.5,547.8 C376.4,522.9 400.8,491.0 426.3,475.2 C451.8,459.4 491.1,455.1 523.5,453.0 C556.0,450.9 597.9,449.5 621.1,462.7 C644.3,476.0 660.0,508.2 662.7,532.3 Z" fill="none" stroke="#000000" stroke-width="10" stroke-linejoin="round" stroke-linecap="round"/>
  <circle cx="172.0" cy="246.0" r="30.0" fill="#fff7e6"/>
  <circle cx="246.0" cy="214.0" r="22.0" fill="#fff7e6"/>
  <circle cx="140.0" cy="328.0" r="25.0" fill="#fff7e6"/>
  <circle cx="228.0" cy="344.0" r="33.0" fill="#fff7e6"/>
  <circle cx="600.0" cy="234.0" r="28.0" fill="#fff7e6"/>
  <circle cx="530.0" cy="218.0" r="21.0" fill="#fff7e6"/>
  <circle cx="626.0" cy="316.0" r="31.0" fill="#fff7e6"/>
  <circle cx="548.0" cy="330.0" r="24.0" fill="#fff7e6"/>
  <circle cx="228.0" cy="540.0" r="24.0" fill="#fff7e6"/>
  <circle cx="284.0" cy="580.0" r="19.0" fill="#fff7e6"/>
  <circle cx="536.0" cy="550.0" r="26.0" fill="#fff7e6"/>
  <circle cx="496.0" cy="588.0" r="20.0" fill="#fff7e6"/>
  <circle cx="590.0" cy="288.0" r="15.0" fill="#fff7e6"/>
  <path d="M332,170 C302,116 294,94 270,72" fill="none" stroke="#3f3026" stroke-width="15" stroke-linejoin="round" stroke-linecap="round"/>
  <path d="M436,166 C468,114 484,98 510,84" fill="none" stroke="#3f3026" stroke-width="15" stroke-linejoin="round" stroke-linecap="round"/>
  <circle cx="268.0" cy="70.0" r="17.0" fill="#3f3026"/>
  <circle cx="512.0" cy="82.0" r="15.0" fill="#3f3026"/>
  <path d="M338.0,298.4 C338.2,309.3 338.0,341.7 338.8,363.5 C339.7,385.3 341.1,407.3 343.1,429.2 C345.1,451.1 347.8,473.0 350.7,494.7 C353.6,516.5 357.3,538.1 360.7,559.6 C364.1,581.1 369.3,613.1 371.1,623.8 A21.0,21.0 0 0 0 412.9,620.2 C412.9,609.5 412.3,577.2 412.5,555.8 C412.8,534.4 413.6,513.2 414.6,492.0 C415.7,470.8 417.4,449.8 419.1,428.7 C420.8,407.6 423.0,386.7 424.8,365.5 C426.6,344.3 429.1,312.2 430.0,301.6 A46.0,46.0 0 0 0 338.0,298.4 Z" fill="#ffb77e"/>
  <g clip-path="url(#k5)"><path d="M309.8,499.3 C313.5,496.7 324.7,489.2 332.1,483.9 C339.6,478.5 347.0,472.0 354.5,467.0 C361.9,462.0 369.4,457.2 376.8,453.8 C384.3,450.5 391.7,448.5 399.2,446.7 C406.6,445.0 414.1,444.7 421.5,443.4 C429.0,442.1 436.4,441.3 443.9,438.8 C451.3,436.4 462.5,430.5 466.2,428.8 L466.2,940.0 L309.8,940.0 Z" fill="#e09863"/></g>
  <path d="M338.0,298.4 C338.2,309.3 338.0,341.7 338.8,363.5 C339.7,385.3 341.1,407.3 343.1,429.2 C345.1,451.1 347.8,473.0 350.7,494.7 C353.6,516.5 357.3,538.1 360.7,559.6 C364.1,581.1 369.3,613.1 371.1,623.8 A21.0,21.0 0 0 0 412.9,620.2 C412.9,609.5 412.3,577.2 412.5,555.8 C412.8,534.4 413.6,513.2 414.6,492.0 C415.7,470.8 417.4,449.8 419.1,428.7 C420.8,407.6 423.0,386.7 424.8,365.5 C426.6,344.3 429.1,312.2 430.0,301.6 A46.0,46.0 0 0 0 338.0,298.4 Z" fill="none" stroke="#000000" stroke-width="10" stroke-linejoin="round" stroke-linecap="round"/>
  <path d="M348,398 L428,394" fill="none" stroke="#000000" stroke-width="8" stroke-linejoin="round" stroke-linecap="round"/>
  <path d="M352,478 L424,474" fill="none" stroke="#000000" stroke-width="8" stroke-linejoin="round" stroke-linecap="round"/>
  <path d="M501.2,213.7 C503.5,238.8 498.7,272.1 483.6,292.1 C468.5,312.0 436.6,327.8 410.8,333.4 C385.0,338.9 351.8,336.0 328.8,325.1 C305.9,314.3 283.7,290.9 273.1,268.4 C262.5,246.0 258.9,214.8 265.3,190.5 C271.8,166.3 290.3,137.7 312.0,123.0 C333.7,108.4 369.3,99.7 395.6,102.8 C421.9,105.8 452.1,122.9 469.7,141.4 C487.3,159.9 498.9,188.6 501.2,213.7 Z" fill="#ffb77e"/>
  <g clip-path="url(#k6)"><path d="M174.6,280.3 C184.5,278.9 214.1,275.6 233.9,271.8 C253.6,268.1 273.4,262.7 293.1,257.7 C312.9,252.8 332.6,246.8 352.4,242.2 C372.1,237.7 391.9,233.4 411.6,230.5 C431.4,227.6 451.1,226.1 470.9,224.8 C490.6,223.6 510.4,223.9 530.1,223.1 C549.9,222.3 579.5,220.5 589.4,220.0 L589.4,570.0 L174.6,570.0 Z" fill="#e09863"/></g>
  <path d="M501.2,213.7 C503.5,238.8 498.7,272.1 483.6,292.1 C468.5,312.0 436.6,327.8 410.8,333.4 C385.0,338.9 351.8,336.0 328.8,325.1 C305.9,314.3 283.7,290.9 273.1,268.4 C262.5,246.0 258.9,214.8 265.3,190.5 C271.8,166.3 290.3,137.7 312.0,123.0 C333.7,108.4 369.3,99.7 395.6,102.8 C421.9,105.8 452.1,122.9 469.7,141.4 C487.3,159.9 498.9,188.6 501.2,213.7 Z" fill="none" stroke="#000000" stroke-width="10" stroke-linejoin="round" stroke-linecap="round"/>
  <g id="face" transform="translate(380.0,228.0) rotate(-3.0) scale(0.6800)"><g id="face-blush"><ellipse cx="-89.8" cy="36.0" rx="31" ry="23" fill="#ffb77e" opacity="0.45"/><ellipse cx="91.5" cy="31.0" rx="27" ry="20" fill="#ffb77e" opacity="0.45"/></g><g id="face-neutral" display="none"><g id="face-neutral-eyes"><g transform="translate(-48.0,-8.0)"><ellipse cx="0" cy="0" rx="25.0" ry="30.0" fill="#3f3026" transform="rotate(-7)"/></g><g transform="translate(50.0,-13.0)"><ellipse cx="0" cy="0" rx="23.8" ry="28.5" fill="#3f3026" transform="rotate(6)"/></g></g><g id="face-neutral-mouth"><path d="M-23.8,42.3 Q2.0,58.9 29.6,39.6" fill="none" stroke="#3f3026" stroke-width="13.8" stroke-linejoin="round" stroke-linecap="round"/></g></g><g id="face-happy"><g id="face-happy-eyes"><g transform="translate(-48.0,-8.0)"><path d="M-31.6,9.2 Q0.0,-34.6 30.3,6.9" fill="none" stroke="#3f3026" stroke-width="17.3" stroke-linejoin="round" stroke-linecap="round"/></g><g transform="translate(50.0,-13.0)"><path d="M-30.0,8.8 Q0.0,-32.9 28.8,6.6" fill="none" stroke="#3f3026" stroke-width="16.4" stroke-linejoin="round" stroke-linecap="round"/></g></g><g id="face-happy-mouth"><path d="M-36.6,35.0 Q2.0,75.4 42.5,32.2" fill="none" stroke="#3f3026" stroke-width="14.7" stroke-linejoin="round" stroke-linecap="round"/></g></g><g id="face-delighted" display="none"><g id="face-delighted-eyes"><g transform="translate(-48.0,-8.0)"><path d="M-31.6,9.2 Q0.0,-34.6 30.3,6.9" fill="none" stroke="#3f3026" stroke-width="17.3" stroke-linejoin="round" stroke-linecap="round"/></g><g transform="translate(50.0,-13.0)"><path d="M-30.0,8.8 Q0.0,-32.9 28.8,6.6" fill="none" stroke="#3f3026" stroke-width="16.4" stroke-linejoin="round" stroke-linecap="round"/></g></g><g id="face-delighted-mouth"><path d="M-42.2,29.4 Q2.0,36.8 46.2,23.9 Q45.2,92.0 2.0,95.7 Q-41.2,90.2 -42.2,29.4 Z" fill="#3f3026"/><path d="M-37.6,34.0 Q2.0,40.5 41.6,28.5 L39.7,46.9 Q2.0,57.0 -35.7,50.6 Z" fill="#fff7e6"/><ellipse cx="3.8" cy="77.3" rx="18.4" ry="12.0" fill="#d96a62"/></g></g><g id="face-sleepy" display="none"><g id="face-sleepy-brows"><path d="M-70,-56 Q-48,-48 -26,-58" fill="none" stroke="#6b5342" stroke-width="16.18" stroke-linejoin="round" stroke-linecap="round"/></g><g id="face-sleepy-eyes"><g transform="translate(-48.0,-8.0)"><path d="M-31.6,-9.2 Q0.0,20.8 30.3,-11.5" fill="none" stroke="#3f3026" stroke-width="17.3" stroke-linejoin="round" stroke-linecap="round"/></g><g transform="translate(50.0,-13.0)"><path d="M-30.0,-8.8 Q0.0,19.7 28.8,-11.0" fill="none" stroke="#3f3026" stroke-width="16.4" stroke-linejoin="round" stroke-linecap="round"/></g></g><g id="face-sleepy-mouth"><ellipse cx="2.0" cy="49.7" rx="13.8" ry="16.6" fill="#3f3026"/></g></g><g id="face-surprised" display="none"><g id="face-surprised-brows"><path d="M-70,-64 Q-48,-84 -26,-66" fill="none" stroke="#6b5342" stroke-width="16.18" stroke-linejoin="round" stroke-linecap="round"/><path d="M29,-71 Q51,-92 73,-73" fill="none" stroke="#6b5342" stroke-width="16.18" stroke-linejoin="round" stroke-linecap="round"/></g><g id="face-surprised-eyes"><g transform="translate(-48.0,-8.0)"><ellipse cx="0" cy="0" rx="28.9" ry="35.8" fill="#3f3026"/><ellipse cx="-9.2" cy="-13.8" rx="9.3" ry="10.4" fill="#fff7e6"/></g><g transform="translate(50.0,-13.0)"><ellipse cx="0" cy="0" rx="27.5" ry="34.0" fill="#3f3026"/><ellipse cx="-8.8" cy="-13.2" rx="8.8" ry="9.9" fill="#fff7e6"/></g></g><g id="face-surprised-mouth"><ellipse cx="2.9" cy="53.4" rx="18.4" ry="24.8" fill="#3f3026"/></g></g><g id="face-mischief" display="none"><g id="face-mischief-brows"><path d="M-72,-60 L-26,-44" fill="none" stroke="#6b5342" stroke-width="16.18" stroke-linejoin="round" stroke-linecap="round"/><path d="M73,-67 L29,-51" fill="none" stroke="#6b5342" stroke-width="16.18" stroke-linejoin="round" stroke-linecap="round"/></g><g id="face-mischief-eyes"><g transform="translate(-48.0,-8.0)"><path d="M-27.6,-19.6 L27.6,-19.6 Q27.6,19.6 0.0,19.6 Q-27.6,19.6 -27.6,-19.6 Z" fill="#3f3026"/></g><g transform="translate(50.0,-13.0)"><path d="M-26.3,-18.6 L26.3,-18.6 Q26.3,18.6 0.0,18.6 Q-26.3,18.6 -26.3,-18.6 Z" fill="#3f3026"/></g></g><g id="face-mischief-mouth"><path d="M-34.8,49.7 Q0.2,49.7 42.5,22.1" fill="none" stroke="#3f3026" stroke-width="13.8" stroke-linejoin="round" stroke-linecap="round"/></g></g><g id="face-blink" display="none"><g id="face-blink-eyes"><g transform="translate(-48.0,-8.0)"><path d="M-34.2,2.3 Q0.0,-6.9 32.9,1.2" fill="none" stroke="#3f3026" stroke-width="18.5" stroke-linejoin="round" stroke-linecap="round"/></g><g transform="translate(50.0,-13.0)"><path d="M-32.5,2.2 Q0.0,-6.6 31.3,1.1" fill="none" stroke="#3f3026" stroke-width="17.5" stroke-linejoin="round" stroke-linecap="round"/></g></g><g id="face-blink-mouth"><path d="M-23.8,42.3 Q2.0,58.9 29.6,39.6" fill="none" stroke="#3f3026" stroke-width="13.8" stroke-linejoin="round" stroke-linecap="round"/></g></g></g>
</svg>
