<svg xmlns="http://www.w3.org/2000/svg" width="1024" height="1024" viewBox="0 0 1024 1024">
  <defs><clipPath id="rimClip"><path d="M92.0,620.0 C89.0,592.3 98.3,564.3 110.0,540.0 C121.7,515.7 141.7,494.3 162.0,474.0 C182.3,453.7 207.7,431.7 232.0,418.0 C256.3,404.3 284.0,390.3 308.0,392.0 C332.0,393.7 353.3,417.0 376.0,428.0 C398.7,439.0 420.7,451.0 444.0,458.0 C467.3,465.0 491.0,470.7 516.0,470.0 C541.0,469.3 569.7,462.3 594.0,454.0 C618.3,445.7 640.0,430.3 662.0,420.0 C684.0,409.7 704.0,395.3 726.0,392.0 C748.0,388.7 772.3,390.7 794.0,400.0 C815.7,409.3 837.3,428.7 856.0,448.0 C874.7,467.3 893.7,491.0 906.0,516.0 C918.3,541.0 926.7,571.0 930.0,598.0 C933.3,625.0 932.3,654.3 926.0,678.0 C919.7,701.7 909.3,723.0 892.0,740.0 C874.7,757.0 849.3,770.3 822.0,780.0 C794.7,789.7 762.7,793.7 728.0,798.0 C693.3,802.3 652.0,804.7 614.0,806.0 C576.0,807.3 538.0,807.0 500.0,806.0 C462.0,805.0 422.3,803.3 386.0,800.0 C349.7,796.7 314.3,793.0 282.0,786.0 C249.7,779.0 217.7,771.3 192.0,758.0 C166.3,744.7 144.7,729.0 128.0,706.0 C111.3,683.0 95.0,647.7 92.0,620.0 Z"/></clipPath><clipPath id="holeClip"><path d="M820.4,659.8 C808.7,675.6 772.8,690.9 737.6,703.7 C702.4,716.4 658.2,731.3 609.3,736.3 C560.4,741.3 497.0,737.5 444.4,733.6 C391.8,729.8 330.8,724.2 293.8,713.1 C256.8,701.9 239.6,683.0 222.5,666.7 C205.4,650.4 181.4,631.3 191.3,615.3 C201.2,599.4 244.2,583.3 281.7,571.0 C319.3,558.7 367.3,545.9 416.6,541.6 C465.9,537.3 524.9,541.9 577.5,545.3 C630.1,548.7 694.0,551.6 732.3,562.2 C770.7,572.8 792.8,592.4 807.5,608.7 C822.2,625.0 832.0,644.0 820.4,659.8 Z"/></clipPath></defs>
  <!-- contact shadow: hue-matched to the ground green, hard edge, ~2% dV -->
  <ellipse cx="516" cy="792" rx="434" ry="40" fill="#93d56c"/>
  <!-- dug rim.  Lit face up-left, shade crescent down-right, concentric with
       the rim itself.  The back bank dips into a saddle at the centre so the
       silhouette reads as a depression, not a loaf. -->
  <path d="M92.0,620.0 C89.0,592.3 98.3,564.3 110.0,540.0 C121.7,515.7 141.7,494.3 162.0,474.0 C182.3,453.7 207.7,431.7 232.0,418.0 C256.3,404.3 284.0,390.3 308.0,392.0 C332.0,393.7 353.3,417.0 376.0,428.0 C398.7,439.0 420.7,451.0 444.0,458.0 C467.3,465.0 491.0,470.7 516.0,470.0 C541.0,469.3 569.7,462.3 594.0,454.0 C618.3,445.7 640.0,430.3 662.0,420.0 C684.0,409.7 704.0,395.3 726.0,392.0 C748.0,388.7 772.3,390.7 794.0,400.0 C815.7,409.3 837.3,428.7 856.0,448.0 C874.7,467.3 893.7,491.0 906.0,516.0 C918.3,541.0 926.7,571.0 930.0,598.0 C933.3,625.0 932.3,654.3 926.0,678.0 C919.7,701.7 909.3,723.0 892.0,740.0 C874.7,757.0 849.3,770.3 822.0,780.0 C794.7,789.7 762.7,793.7 728.0,798.0 C693.3,802.3 652.0,804.7 614.0,806.0 C576.0,807.3 538.0,807.0 500.0,806.0 C462.0,805.0 422.3,803.3 386.0,800.0 C349.7,796.7 314.3,793.0 282.0,786.0 C249.7,779.0 217.7,771.3 192.0,758.0 C166.3,744.7 144.7,729.0 128.0,706.0 C111.3,683.0 95.0,647.7 92.0,620.0 Z" fill="#b98a63"/><g clip-path="url(#rimClip)"><path d="M92.0,620.0 C89.0,592.3 98.3,564.3 110.0,540.0 C121.7,515.7 141.7,494.3 162.0,474.0 C182.3,453.7 207.7,431.7 232.0,418.0 C256.3,404.3 284.0,390.3 308.0,392.0 C332.0,393.7 353.3,417.0 376.0,428.0 C398.7,439.0 420.7,451.0 444.0,458.0 C467.3,465.0 491.0,470.7 516.0,470.0 C541.0,469.3 569.7,462.3 594.0,454.0 C618.3,445.7 640.0,430.3 662.0,420.0 C684.0,409.7 704.0,395.3 726.0,392.0 C748.0,388.7 772.3,390.7 794.0,400.0 C815.7,409.3 837.3,428.7 856.0,448.0 C874.7,467.3 893.7,491.0 906.0,516.0 C918.3,541.0 926.7,571.0 930.0,598.0 C933.3,625.0 932.3,654.3 926.0,678.0 C919.7,701.7 909.3,723.0 892.0,740.0 C874.7,757.0 849.3,770.3 822.0,780.0 C794.7,789.7 762.7,793.7 728.0,798.0 C693.3,802.3 652.0,804.7 614.0,806.0 C576.0,807.3 538.0,807.0 500.0,806.0 C462.0,805.0 422.3,803.3 386.0,800.0 C349.7,796.7 314.3,793.0 282.0,786.0 C249.7,779.0 217.7,771.3 192.0,758.0 C166.3,744.7 144.7,729.0 128.0,706.0 C111.3,683.0 95.0,647.7 92.0,620.0 Z" fill="#d3a577" transform="translate(-46.0,-58.0) rotate(1.20 512 620)"/></g>
  <path d="M92.0,620.0 C89.0,592.3 98.3,564.3 110.0,540.0 C121.7,515.7 141.7,494.3 162.0,474.0 C182.3,453.7 207.7,431.7 232.0,418.0 C256.3,404.3 284.0,390.3 308.0,392.0 C332.0,393.7 353.3,417.0 376.0,428.0 C398.7,439.0 420.7,451.0 444.0,458.0 C467.3,465.0 491.0,470.7 516.0,470.0 C541.0,469.3 569.7,462.3 594.0,454.0 C618.3,445.7 640.0,430.3 662.0,420.0 C684.0,409.7 704.0,395.3 726.0,392.0 C748.0,388.7 772.3,390.7 794.0,400.0 C815.7,409.3 837.3,428.7 856.0,448.0 C874.7,467.3 893.7,491.0 906.0,516.0 C918.3,541.0 926.7,571.0 930.0,598.0 C933.3,625.0 932.3,654.3 926.0,678.0 C919.7,701.7 909.3,723.0 892.0,740.0 C874.7,757.0 849.3,770.3 822.0,780.0 C794.7,789.7 762.7,793.7 728.0,798.0 C693.3,802.3 652.0,804.7 614.0,806.0 C576.0,807.3 538.0,807.0 500.0,806.0 C462.0,805.0 422.3,803.3 386.0,800.0 C349.7,796.7 314.3,793.0 282.0,786.0 C249.7,779.0 217.7,771.3 192.0,758.0 C166.3,744.7 144.7,729.0 128.0,706.0 C111.3,683.0 95.0,647.7 92.0,620.0 Z" fill="none" stroke="#000000" stroke-width="6" stroke-linejoin="round" stroke-linecap="round"/>
  <!-- interior: a full step darker than the lip.  The lit far wall is a
       crescent concentric with the opening, made by dropping the opening back
       down over itself -- it follows the hole, it is not a wavy band. -->
  <path d="M820.4,659.8 C808.7,675.6 772.8,690.9 737.6,703.7 C702.4,716.4 658.2,731.3 609.3,736.3 C560.4,741.3 497.0,737.5 444.4,733.6 C391.8,729.8 330.8,724.2 293.8,713.1 C256.8,701.9 239.6,683.0 222.5,666.7 C205.4,650.4 181.4,631.3 191.3,615.3 C201.2,599.4 244.2,583.3 281.7,571.0 C319.3,558.7 367.3,545.9 416.6,541.6 C465.9,537.3 524.9,541.9 577.5,545.3 C630.1,548.7 694.0,551.6 732.3,562.2 C770.7,572.8 792.8,592.4 807.5,608.7 C822.2,625.0 832.0,644.0 820.4,659.8 Z" fill="#b98a63"/>
  <g clip-path="url(#holeClip)">
    <path d="M820.4,659.8 C808.7,675.6 772.8,690.9 737.6,703.7 C702.4,716.4 658.2,731.3 609.3,736.3 C560.4,741.3 497.0,737.5 444.4,733.6 C391.8,729.8 330.8,724.2 293.8,713.1 C256.8,701.9 239.6,683.0 222.5,666.7 C205.4,650.4 181.4,631.3 191.3,615.3 C201.2,599.4 244.2,583.3 281.7,571.0 C319.3,558.7 367.3,545.9 416.6,541.6 C465.9,537.3 524.9,541.9 577.5,545.3 C630.1,548.7 694.0,551.6 732.3,562.2 C770.7,572.8 792.8,592.4 807.5,608.7 C822.2,625.0 832.0,644.0 820.4,659.8 Z" fill="#9a704e" transform="translate(0,66)"/>
    <path d="M735.2,654.3 L695.4,666.5 L642.2,676.0 L579.6,682.0 L512.0,684.0 L444.4,682.0 L381.8,676.0 L328.6,666.5 L288.8,654.3" fill="none" stroke="#82603f" stroke-width="14" stroke-linejoin="round" stroke-linecap="round"/><path d="M663.4,685.3 L633.9,692.2 L598.1,697.4 L557.9,700.8 L515.3,702.0 L472.6,701.1 L431.9,698.1 L395.3,693.1 L364.7,686.4" fill="none" stroke="#82603f" stroke-width="12" stroke-linejoin="round" stroke-linecap="round"/><path d="M595.4,707.1 L578.3,710.2 L558.9,712.5 L538.0,714.0 L516.2,714.6 L494.3,714.3 L472.9,713.2 L452.9,711.2 L434.8,708.4" fill="none" stroke="#82603f" stroke-width="10" stroke-linejoin="round" stroke-linecap="round"/>
  </g>
  <path d="M820.4,659.8 C808.7,675.6 772.8,690.9 737.6,703.7 C702.4,716.4 658.2,731.3 609.3,736.3 C560.4,741.3 497.0,737.5 444.4,733.6 C391.8,729.8 330.8,724.2 293.8,713.1 C256.8,701.9 239.6,683.0 222.5,666.7 C205.4,650.4 181.4,631.3 191.3,615.3 C201.2,599.4 244.2,583.3 281.7,571.0 C319.3,558.7 367.3,545.9 416.6,541.6 C465.9,537.3 524.9,541.9 577.5,545.3 C630.1,548.7 694.0,551.6 732.3,562.2 C770.7,572.8 792.8,592.4 807.5,608.7 C822.2,625.0 832.0,644.0 820.4,659.8 Z" fill="none" stroke="#000000" stroke-width="6" stroke-linejoin="round" stroke-linecap="round"/>
  <!-- clods straddling the rim: ragged edge, one deliberately crooked -->
  <path d="M342.4,409.1 C339.7,417.2 325.6,423.7 315.0,428.3 C304.4,432.8 287.4,439.7 278.7,436.1 C270.1,432.5 265.3,416.8 263.0,406.6 C260.7,396.4 258.8,381.5 265.1,375.1 C271.4,368.7 289.7,367.5 300.7,368.2 C311.8,368.9 324.4,372.6 331.4,379.4 C338.3,386.2 345.1,400.9 342.4,409.1 Z" fill="#d3a577" stroke="#000000" stroke-width="5" stroke-linejoin="round" stroke-linecap="round" transform="rotate(-16 300 400)"/><path d="M411.9,443.1 C410.7,449.5 407.2,460.5 401.3,463.0 C395.3,465.5 383.0,461.5 376.1,458.2 C369.2,454.9 361.3,448.7 360.0,443.0 C358.8,437.3 363.9,429.4 368.6,424.2 C373.4,418.9 382.0,411.5 388.6,411.5 C395.3,411.6 404.6,419.3 408.5,424.5 C412.3,429.8 413.1,436.7 411.9,443.1 Z" fill="#b98a63" stroke="#000000" stroke-width="5" stroke-linejoin="round" stroke-linecap="round" transform="rotate(18 388 438)"/><path d="M539.9,483.1 C538.4,487.6 529.9,491.4 524.2,493.5 C518.5,495.6 510.2,497.6 505.7,495.6 C501.1,493.5 498.4,486.5 497.0,481.4 C495.7,476.2 494.2,468.3 497.4,464.7 C500.6,461.1 510.5,459.5 516.4,459.8 C522.4,460.2 529.2,462.8 533.1,466.7 C537.0,470.6 541.4,478.7 539.9,483.1 Z" fill="#b98a63" stroke="#000000" stroke-width="5" stroke-linejoin="round" stroke-linecap="round" transform="rotate(-10 516 478)"/><path d="M692.6,430.1 C690.3,437.7 685.2,448.5 678.4,451.0 C671.5,453.5 659.9,448.6 651.6,445.1 C643.2,441.7 630.1,436.6 628.3,430.4 C626.5,424.1 634.8,413.0 640.9,407.5 C646.9,401.9 656.1,397.3 664.6,397.0 C673.1,396.7 687.3,400.1 692.0,405.6 C696.6,411.1 694.8,422.6 692.6,430.1 Z" fill="#d3a577" stroke="#000000" stroke-width="5" stroke-linejoin="round" stroke-linecap="round" transform="rotate(42 664 424)"/><path d="M794.0,407.0 C791.6,414.5 775.8,420.8 765.9,424.2 C756.0,427.5 743.1,430.5 734.8,427.2 C726.6,423.9 717.7,412.3 716.3,404.4 C714.9,396.4 720.2,386.8 726.3,379.6 C732.4,372.5 743.8,361.5 752.8,361.4 C761.9,361.4 773.5,371.7 780.4,379.3 C787.2,386.9 796.4,399.5 794.0,407.0 Z" fill="#d3a577" stroke="#000000" stroke-width="5" stroke-linejoin="round" stroke-linecap="round" transform="rotate(-40 752 398)"/><path d="M899.5,491.5 C898.2,497.5 892.6,505.8 886.1,508.8 C879.6,511.7 866.5,512.3 860.3,509.2 C854.2,506.1 850.5,496.7 849.3,490.4 C848.2,484.1 849.1,476.3 853.3,471.2 C857.5,466.2 867.8,459.7 874.6,460.0 C881.4,460.3 889.9,467.6 894.0,472.8 C898.2,478.1 900.9,485.5 899.5,491.5 Z" fill="#b98a63" stroke="#000000" stroke-width="5" stroke-linejoin="round" stroke-linecap="round" transform="rotate(10 874 486)"/><path d="M157.4,584.7 C155.5,590.7 144.3,596.2 137.0,598.6 C129.6,601.1 120.5,602.1 113.3,599.6 C106.0,597.2 95.1,589.9 93.7,583.8 C92.3,577.6 99.3,568.1 104.8,562.8 C110.3,557.6 119.2,552.2 126.6,552.2 C133.9,552.2 143.7,557.5 148.9,562.9 C154.0,568.4 159.4,578.8 157.4,584.7 Z" fill="#b98a63" stroke="#000000" stroke-width="5" stroke-linejoin="round" stroke-linecap="round" transform="rotate(-24 126 578)"/><path d="M169.4,680.6 C168.0,686.2 164.4,695.0 159.2,697.0 C154.0,699.0 144.2,695.3 138.2,692.6 C132.3,689.8 125.3,685.5 123.6,680.4 C121.9,675.2 123.9,665.5 128.1,661.8 C132.2,658.0 141.9,657.6 148.4,657.8 C155.0,658.1 163.9,659.4 167.4,663.2 C170.9,667.0 170.8,675.0 169.4,680.6 Z" fill="#d3a577" stroke="#000000" stroke-width="5" stroke-linejoin="round" stroke-linecap="round" transform="rotate(32 148 676)"/><path d="M926.8,646.2 C924.8,651.9 915.1,657.1 908.3,659.4 C901.5,661.8 891.7,662.8 886.0,660.3 C880.4,657.8 876.0,650.3 874.2,644.2 C872.4,638.1 871.1,627.9 875.2,623.7 C879.2,619.4 891.0,618.4 898.5,618.6 C906.0,618.9 915.6,620.7 920.3,625.3 C925.0,629.9 928.8,640.5 926.8,646.2 Z" fill="#b98a63" stroke="#000000" stroke-width="5" stroke-linejoin="round" stroke-linecap="round" transform="rotate(4 898 640)"/>
</svg>
